<?xml version="1.0" standalone="no"?>
<!DOCTYPE svg PUBLIC "-//W3C//DTD SVG 1.1//EN" "http://www.w3.org/Graphics/SVG/1.1/DTD/svg11.dtd" >
<svg xmlns="http://www.w3.org/2000/svg" xmlns:xlink="http://www.w3.org/1999/xlink" version="1.1">
<metadata></metadata>
<defs>
<font id="brandinglightitalic" horiz-adv-x="1085" >
<font-face units-per-em="2048" ascent="1577" descent="-471" />
<missing-glyph horiz-adv-x="518" />
<glyph unicode="&#xfb01;" horiz-adv-x="1030" d="M106 0l150 895h-141v27q2 14 10 34h141l4 19q18 104 60 180t101 117.5t123.5 60.5t139.5 19q101 0 168.5 -32t102.5 -73q-5 -18 -20.5 -33.5t-35.5 -19.5q-47 44 -96 65t-131 21q-285 0 -338 -295l-4 -29h586l-168 -956q-18 -6 -39 -6t-39 6l160 893l-510 2l-148 -895 q-15 -6 -39 -6q-22 0 -37 6z" />
<glyph unicode="&#xfb02;" horiz-adv-x="1146" d="M104 0l158 895h-141v27q2 14 10 34h141l2 11q18 102 61.5 179t103 120.5t125 64.5t136.5 21q150 0 256 -64l-186 -1085q-12 -72 18 -110t93 -38q72 0 143 58q33 -17 37 -54q-85 -73 -193 -73q-95 0 -143.5 54.5t-30.5 156.5l180 1044q-86 39 -188 39q-58 0 -109.5 -16.5 t-98.5 -50.5t-80.5 -95t-47.5 -143l-4 -19h283q2 -4 2 -16q0 -21 -13 -47l-282 2l-158 -895q-18 -6 -39 -6q-23 0 -35 6z" />
<glyph horiz-adv-x="0" />
<glyph horiz-adv-x="682" />
<glyph unicode=" "  horiz-adv-x="518" />
<glyph unicode="&#x09;" horiz-adv-x="518" />
<glyph unicode="&#xa0;" horiz-adv-x="518" />
<glyph unicode="!" horiz-adv-x="460" d="M72 51q0 28 20.5 48t48.5 20t48 -20t20 -48q0 -29 -20 -49t-48 -20t-48.5 20t-20.5 49zM162 307q58 415 160 1014q16 4 43 4q26 0 38 -4q-102 -580 -198 -1014q-12 -4 -21 -4q-6 0 -22 4z" />
<glyph unicode="&#x22;" horiz-adv-x="577" d="M223 948l47 393q29 11 45 11q21 0 43 -11l-92 -393q-8 -4 -22 -4q-15 0 -21 4zM442 948l47 393q21 9 46 9t43 -9l-95 -395q-12 -4 -20 -4q-12 0 -21 6z" />
<glyph unicode="#" horiz-adv-x="1273" d="M25 311q0 35 24 66h238l162 401h-211q3 38 26 66h211l168 416q41 9 74 0l-168 -416h393l168 416q41 9 74 0l-168 -416h239q-3 -38 -26 -66h-240l-162 -401h213q-3 -37 -26 -66h-213l-166 -407q-41 -12 -72 0l164 407h-393l-166 -407q-41 -12 -72 0l164 407h-235zM360 377 h394l161 401h-393z" />
<glyph unicode="$" horiz-adv-x="946" d="M41 203q14 39 53 59q96 -105 287 -115l90 504q-42 10 -63 15.5t-58 18t-56.5 24.5t-45 32.5t-38.5 44.5t-22.5 58t-9.5 76q0 143 110.5 229t284.5 92l31 172q16 4 33 4q15 0 31 -4l-31 -174q165 -10 274 -98q-15 -41 -47 -60q-107 79 -239 86l-80 -454q50 -12 83 -23.5 t73 -34.5t63.5 -51.5t40 -75t16.5 -106.5q0 -156 -102.5 -247t-286.5 -97l-31 -178q-20 -4 -32 -4q-15 0 -31 4l31 178q-116 6 -200 41.5t-128 83.5zM260 926q0 -48 16.5 -82.5t52 -56.5t67.5 -34t87 -26l78 442q-137 -6 -219 -69t-82 -174zM444 147q149 6 224 77t75 188 q0 53 -16 92t-48 64.5t-66 40.5t-83 28z" />
<glyph unicode="%" horiz-adv-x="1460" d="M127 -96l1118 1411q47 12 82 0l-1118 -1411q-53 -10 -82 0zM150 963q0 154 85.5 245.5t217.5 91.5q117 0 179 -68t62 -177q0 -156 -84.5 -248t-218.5 -92q-118 0 -179.5 68.5t-61.5 179.5zM215 967q0 -85 48.5 -137t137.5 -52q102 0 164 73t62 198q0 85 -45 137.5 t-140 52.5q-99 0 -163 -74t-64 -198zM795 233q0 154 85.5 246t217.5 92q117 0 179 -68.5t62 -178.5q0 -155 -84.5 -246.5t-218.5 -91.5q-118 0 -179.5 68t-61.5 179zM860 238q0 -85 48.5 -137t138.5 -52q102 0 163.5 72t61.5 196q0 87 -45 139t-140 52q-99 0 -163 -74 t-64 -196z" />
<glyph unicode="&#x26;" horiz-adv-x="1189" d="M78 289q0 160 96.5 265.5t243.5 143.5q-82 29 -128 94t-46 162q0 168 120 271.5t295 103.5q189 0 281 -102q-18 -35 -53 -56q-87 91 -238 91q-141 0 -235.5 -85t-94.5 -214q0 -227 289 -230h547l2 -16q0 -25 -14 -53h-217l-107 -611q-164 -76 -354 -76q-184 0 -285.5 82 t-101.5 230zM156 299q0 -119 83 -186.5t238 -67.5q161 0 275 53l100 566h-266q-101 -1 -183 -29.5t-135.5 -78.5t-82.5 -115.5t-29 -141.5z" />
<glyph unicode="'" horiz-adv-x="358" d="M223 948l47 393q26 11 45 11q21 0 43 -11l-92 -393q-8 -4 -22 -4q-15 0 -21 4z" />
<glyph unicode="(" horiz-adv-x="493" d="M84 190q0 648 408 1211q36 -3 51 -33q-175 -257 -276 -566t-101 -603q0 -286 80 -531q-18 -27 -64 -24q-98 260 -98 546z" />
<glyph unicode=")" horiz-adv-x="491" d="M-63 -326q176 256 277 565.5t101 604.5q0 286 -82 530q22 28 64 25q98 -263 98 -547q0 -648 -407 -1210q-37 3 -51 32z" />
<glyph unicode="*" horiz-adv-x="681" d="M213 1071q-18 42 0 82l166 -27q3 20 18 29l-78 150q35 32 78 26l29 -166q13 0 29 -8l116 119q41 -25 50 -66l-148 -77q2 -6 2 -17q0 -6 -4 -18l150 -76q-8 -46 -48 -68l-120 119q-16 -8 -25 -8l-27 -170q-47 -3 -77 27l75 151q-15 11 -20 27z" />
<glyph unicode="+" horiz-adv-x="952" d="M86 465q-8 38 12 67h340l64 361q10 5 34 5t31 -5l-63 -361h344q3 -9 -1.5 -32.5t-10.5 -34.5h-342l-64 -361q-13 -6 -35.5 -4.5t-32.5 6.5l64 359h-340z" />
<glyph unicode="," horiz-adv-x="391" d="M-39 -240q59 65 95 165.5t36 201.5q0 47 -8 68q25 7 51.5 4.5t42.5 -11.5q2 -4 2 -34q0 -125 -60 -242t-128 -180q-12 1 -20.5 9t-10.5 19z" />
<glyph unicode="-" horiz-adv-x="757" d="M141 481v21q0 23 13 45h446v-15q0 -27 -12 -51h-447z" />
<glyph unicode="." horiz-adv-x="415" d="M66 55q0 30 21.5 52t51.5 22t52 -22t22 -52q0 -31 -21.5 -52t-52.5 -21t-52 21t-21 52z" />
<glyph unicode="/" horiz-adv-x="976" d="M-104 -369l1089 1737q18 6 39 6q19 0 37 -6l-1090 -1737q-28 -4 -39 -4q-16 0 -36 4z" />
<glyph unicode="0" horiz-adv-x="1183" d="M133 475q0 181 38 340t108 279.5t178.5 190t240.5 69.5q194 0 289.5 -130t95.5 -362q0 -186 -33.5 -343.5t-100 -280t-175.5 -192t-250 -69.5q-198 0 -294.5 132t-96.5 366zM215 479q0 -428 320 -428q107 0 190 48.5t134 126t84 185t45.5 216t12.5 229.5q0 424 -315 424 q-99 0 -180.5 -48t-134.5 -127t-89 -184.5t-51.5 -215.5t-15.5 -226z" />
<glyph unicode="1" horiz-adv-x="649" d="M139 1133q363 182 364 182q30 14 50 14q23 0 29 -4l-234 -1325q-18 -6 -41 -6q-20 0 -35 6l217 1229l-323 -162q-30 26 -27 66z" />
<glyph unicode="2" horiz-adv-x="1038" d="M47 29q0 47 53 92q191 155 309.5 256t212 192t139.5 158.5t68.5 130.5t22.5 133q0 136 -79 208.5t-214 72.5q-113 0 -190.5 -44t-145.5 -118q-40 8 -47 45q75 88 168.5 139.5t224.5 51.5q104 0 184 -35t130.5 -115t50.5 -197q0 -43 -5.5 -82t-21 -80t-32 -75.5t-50.5 -78 t-62.5 -77.5t-82.5 -85.5t-97 -90t-119 -102t-134.5 -111t-157.5 -127.5l-25 -18l27 2h723q5 -40 -14 -74h-832q-4 12 -4 29z" />
<glyph unicode="3" horiz-adv-x="1019" d="M35 111q12 39 47 57q64 -59 139 -89t195 -30q177 0 287 102.5t110 280.5q0 155 -105.5 235.5t-289.5 80.5h-33v12q0 24 33 59l428 420h-643q-3 43 14 76h752q0 -54 -47 -98l-424 -410q170 -5 281.5 -99t111.5 -264q0 -149 -66 -255.5t-174 -157.5t-245 -51 q-139 0 -232 38.5t-139 92.5z" />
<glyph unicode="4" horiz-adv-x="1003" d="M47 385q-22 77 39 162l576 811q37 -3 61 -37l-565 -793q-32 -43 -29 -73h565l56 327q28 4 38 4q15 0 35 -4l-57 -327h164q0 -19 -2 -27q0 -20 -13 -43h-161l-66 -385q-24 -4 -37 -4q-15 0 -35 4l66 385h-635z" />
<glyph unicode="5" horiz-adv-x="1011" d="M39 84q16 41 51 59q97 -102 305 -102q182 0 295 109t113 296q0 156 -78.5 231t-239.5 75q-63 0 -119.5 -14.5t-95.5 -29t-59 -14.5q-19 0 -31 6l109 615h676q0 -46 -13 -76h-600l-84 -465q40 19 103.5 35t124.5 16q385 0 385 -366q0 -149 -66 -261.5t-177 -169.5 t-249 -57q-226 0 -350 113z" />
<glyph unicode="6" horiz-adv-x="1056" d="M102 393q0 159 51.5 302t138 250t200 190t237 133t250.5 69q19 -19 12 -69q-95 -15 -189.5 -48t-189 -89t-172.5 -129t-139.5 -173t-91.5 -215q159 162 362 162q102 0 181.5 -36t129.5 -116.5t50 -197.5q0 -208 -127 -332.5t-316 -124.5q-185 0 -286 112.5t-101 311.5z M182 397q0 -169 82 -263.5t236 -94.5t253 102t99 269q0 75 -24.5 132.5t-66.5 91.5t-93.5 51t-110.5 17q-106 0 -199 -48t-165 -126q-11 -79 -11 -131z" />
<glyph unicode="7" horiz-adv-x="944" d="M129 12l791 1225h-758q-3 43 14 76h844q7 -43 -41 -117l-786 -1221q-46 7 -64 37z" />
<glyph unicode="8" horiz-adv-x="1062" d="M74 279q0 78 31.5 151t83.5 127.5t110.5 95t120.5 66.5q-89 45 -133.5 107t-44.5 155q0 156 116.5 261.5t298.5 105.5q158 0 248 -79.5t90 -205.5q0 -56 -18.5 -108.5t-47.5 -93t-69 -76.5t-77.5 -60.5t-77.5 -44.5q92 -48 145 -118t53 -177q0 -85 -26.5 -154.5t-71 -116 t-104.5 -78t-124.5 -45.5t-132.5 -14q-171 0 -270.5 72t-99.5 230zM152 289q0 -126 82.5 -184t220.5 -58q73 0 137 18t118 55t85.5 102t31.5 151q0 58 -20.5 104.5t-60 80.5t-84.5 57.5t-107 46.5l-63 24q-60 -21 -118 -58t-108.5 -87t-82 -116t-31.5 -136zM319 995 q0 -100 64.5 -157.5t200.5 -106.5q9 -3 26.5 -10t26.5 -10q281 136 281 338q0 103 -72.5 165t-200.5 62q-145 0 -235.5 -80t-90.5 -201z" />
<glyph unicode="9" horiz-adv-x="1062" d="M139 -4q0 19 13 45q139 1 255.5 33.5t214.5 100.5t165 184t94 274q-160 -125 -349 -125q-170 0 -275 94.5t-105 280.5q0 211 123 338t309 127q188 0 290.5 -127t102.5 -349q0 -196 -44 -350.5t-119.5 -256.5t-182.5 -169t-227.5 -96t-260.5 -29q-4 12 -4 25zM227 895 q0 -82 25.5 -144.5t70.5 -99.5t102 -55t124 -18q177 0 342 133q8 63 8 151q0 195 -85 305.5t-241 110.5q-145 0 -245.5 -102t-100.5 -281z" />
<glyph unicode=":" horiz-adv-x="452" d="M70 98q0 31 22 53.5t53 22.5q32 0 54 -22.5t22 -53.5q0 -32 -22 -53.5t-54 -21.5q-31 0 -53 21.5t-22 53.5zM195 807q0 31 22 53.5t51 22.5q32 0 54 -22.5t22 -53.5t-22 -52.5t-54 -21.5q-30 0 -51.5 21.5t-21.5 52.5z" />
<glyph unicode=";" horiz-adv-x="501" d="M45 -242q58 66 92.5 166.5t34.5 202.5q0 45 -6 66q50 17 96 -5v-34q0 -124 -60.5 -240.5t-129.5 -181.5q-10 0 -18.5 8.5t-8.5 17.5zM195 748q0 30 22.5 52.5t52.5 22.5q32 0 54 -22t22 -53q0 -32 -22 -54t-54 -22q-30 0 -52.5 22t-22.5 54z" />
<glyph unicode="&#x3c;" horiz-adv-x="1087" d="M66 432v33q0 22 14 59l924 381q17 -23 14 -65l-846 -353l-33 -8l31 -10l713 -350q-9 -39 -39 -66z" />
<glyph unicode="=" horiz-adv-x="1007" d="M109 272v15q0 26 12 53h690v-12q0 -26 -12 -56h-690zM168 610v15q0 25 12 55h690v-14q0 -26 -12 -56h-690z" />
<glyph unicode="&#x3e;" horiz-adv-x="1087" d="M49 119l838 350l33 10l-31 8l-719 353q10 41 37 65l788 -381v-18q0 -34 -18 -74l-911 -379q-20 26 -17 66z" />
<glyph unicode="?" horiz-adv-x="798" d="M182 1208q124 99 273 99q150 0 236.5 -78.5t86.5 -218.5q0 -72 -22.5 -130.5t-59 -99.5t-81.5 -77t-91.5 -72.5t-86 -77t-68.5 -98.5t-37 -129q-12 -4 -39 -4q-17 0 -25 4q7 81 34 146.5t65.5 108.5t83.5 79.5t88.5 69.5t79 69t57.5 87t22 115q0 108 -65.5 170t-183.5 62 q-128 0 -232 -74q-35 15 -35 49zM203 51q0 27 20.5 47.5t46.5 20.5q29 0 49.5 -20t20.5 -48q0 -29 -20.5 -49t-49.5 -20q-27 0 -47 20t-20 49z" />
<glyph unicode="@" horiz-adv-x="1613" d="M100 414q0 177 64.5 339t174 280t264.5 188.5t327 70.5q284 0 442 -161t158 -443q0 -225 -104.5 -380.5t-258.5 -155.5q-81 0 -123.5 44.5t-44.5 122.5q-110 -135 -276 -135q-110 0 -180 73.5t-70 205.5q0 104 36 192t96.5 146t139 90.5t164.5 32.5q132 0 242 -88 l-78 -445q-14 -81 13.5 -127.5t99.5 -46.5q111 0 189.5 132.5t78.5 326.5q0 256 -140 400.5t-396 144.5q-157 0 -295.5 -64.5t-235.5 -173t-153 -255t-56 -306.5q0 -157 58.5 -279t178.5 -195t285 -73q152 0 295 62q11 -9 16.5 -27.5t2.5 -36.5q-149 -70 -326 -70 q-184 0 -319 81.5t-202 218.5t-67 311zM547 475q0 -102 52 -162.5t136 -60.5q75 0 147 38.5t124 123.5l71 385q-85 59 -182 59q-143 0 -245.5 -106.5t-102.5 -276.5z" />
<glyph unicode="A" horiz-adv-x="1138" d="M-53 6l712 1309q12 4 39 4q25 0 37 -4l271 -1309q-21 -12 -54 -12q-14 0 -26 4l-84 420h-590l-227 -420q-8 -2 -29 -2q-29 0 -49 10zM289 487h538l-133 662l-12 76l-37 -78z" />
<glyph unicode="B" horiz-adv-x="1130" d="M100 0l230 1300q145 27 319 27q189 0 286 -72.5t97 -207.5t-73.5 -230t-213.5 -137q125 -26 184.5 -96t59.5 -187q0 -195 -140 -308.5t-400 -113.5q-196 0 -349 25zM188 63q140 -18 267 -18q221 0 337.5 94.5t116.5 243.5q0 128 -81.5 192t-252.5 64h-284zM303 709h242 q193 0 301 92t108 229q0 109 -77 169.5t-238 60.5q-137 0 -242 -17z" />
<glyph unicode="C" horiz-adv-x="1189" d="M125 522q0 177 53 330t146 260.5t224 169t283 61.5q242 0 379 -137q-17 -40 -53 -57q-126 123 -338 123q-180 0 -320 -96t-216 -264.5t-76 -381.5q0 -223 115 -352t325 -129q225 0 371 125q36 -9 39 -51q-171 -148 -422 -148q-243 0 -376.5 148.5t-133.5 398.5z" />
<glyph unicode="D" horiz-adv-x="1331" d="M102 2l230 1305q162 26 307 26q290 0 446 -147.5t156 -411.5q0 -125 -31.5 -240t-97.5 -216t-160 -175.5t-227 -117.5t-291 -43q-196 0 -332 20zM190 70q119 -17 259 -17q174 0 312 58t223.5 157.5t130 226t44.5 269.5q0 237 -136 366.5t-396 129.5q-120 0 -228 -15z" />
<glyph unicode="E" horiz-adv-x="1050" d="M100 0l234 1315h731q1 -8 1 -17q0 -28 -13 -55h-658l-92 -522h596q1 -8 1 -16q0 -27 -13 -56h-596l-103 -577h684q1 -8 1 -16q0 -29 -15 -56h-758z" />
<glyph unicode="F" horiz-adv-x="995" d="M100 0l234 1315h735v-11q0 -31 -14 -61h-658l-100 -567h588v-11q0 -29 -13 -59h-587l-107 -606q-21 -6 -41 -6q-19 0 -37 6z" />
<glyph unicode="G" horiz-adv-x="1271" d="M127 520q0 240 92 428t256.5 291.5t374.5 103.5q243 0 377 -151q-14 -37 -53 -59q-64 69 -144 103t-196 34q-186 0 -329 -94t-220.5 -263t-77.5 -387q0 -221 111.5 -349t334.5 -128q192 0 336 72l78 434h-330q-1 7 -1 15q0 25 14 57h405l-98 -549q-94 -49 -191 -76 t-227 -27q-251 0 -381.5 146.5t-130.5 398.5z" />
<glyph unicode="H" horiz-adv-x="1345" d="M100 0l234 1315q15 6 37 6q24 0 39 -6l-107 -602h793l106 602q18 6 39 6q22 0 37 -6l-231 -1315q-18 -6 -37 -6q-23 0 -41 6l114 643h-792l-113 -643q-18 -6 -41 -6q-19 0 -37 6z" />
<glyph unicode="I" horiz-adv-x="477" d="M102 0l232 1315q18 6 39 6q22 0 37 -6l-232 -1315q-18 -6 -39 -6q-22 0 -37 6z" />
<glyph unicode="J" horiz-adv-x="727" d="M-57 49q15 41 47 60q37 -36 73.5 -53t94.5 -17q43 0 82.5 13.5t76 43t63.5 82t40 123.5l178 1014q15 6 39 6q22 0 37 -6l-178 -1010q-60 -338 -349 -338q-66 0 -120.5 25t-83.5 57z" />
<glyph unicode="K" horiz-adv-x="1107" d="M102 0l232 1315q18 6 39 6q22 0 37 -6l-121 -690q245 135 426.5 291t378.5 401q12 2 39 2q31 0 45 -4q-156 -202 -316.5 -356t-345.5 -275q173 -324 473 -680q-24 -8 -69 -8q-19 0 -27 2q-283 354 -442 643q-58 -36 -177 -100l-96 -541q-18 -6 -41 -6q-20 0 -35 6z" />
<glyph unicode="L" horiz-adv-x="927" d="M100 -2l234 1317q18 6 39 6q19 0 37 -6l-222 -1247h629q3 -11 3 -22q0 -25 -15 -48h-705z" />
<glyph unicode="M" horiz-adv-x="1538" d="M100 0l232 1311q23 10 55 10q15 0 21 -2l299 -1049l12 -55l33 55l649 1047q6 2 22 2q29 0 50 -8l-232 -1311q-18 -6 -39 -6q-19 0 -37 6l191 1069l18 86l-24 -47l-613 -981q-24 -4 -35 -4q-8 0 -32 4l-281 995l-10 45l-12 -88l-191 -1079q-18 -6 -39 -6q-19 0 -37 6z" />
<glyph unicode="N" horiz-adv-x="1335" d="M102 0l230 1309q26 12 51 12l23 -2l565 -1161l14 -35l6 47l203 1147q18 6 37 6q22 0 37 -6l-232 -1311q-33 -10 -71 -10l-564 1151l-18 45l-6 -53l-201 -1139q-18 -6 -39 -6q-20 0 -35 6z" />
<glyph unicode="O" horiz-adv-x="1390" d="M127 522q0 238 84 425.5t234 291.5t339 104q241 0 376.5 -150.5t135.5 -395.5q0 -374 -181.5 -597t-481.5 -223q-239 0 -372.5 148t-133.5 397zM209 528q0 -223 113.5 -351t324.5 -128q176 0 305 95t195.5 263t66.5 388q0 218 -115 347.5t-327 129.5q-168 0 -297.5 -97.5 t-197.5 -266t-68 -380.5z" />
<glyph unicode="P" horiz-adv-x="1091" d="M100 0l228 1290h2q143 47 325 47q207 0 314.5 -93t107.5 -265q0 -105 -33.5 -192t-100.5 -154t-176 -104t-251 -37q-145 0 -248 20l-90 -512q-18 -6 -41 -6q-22 0 -37 6zM281 584q95 -23 245 -23q124 0 216.5 32t146.5 88.5t80 128t26 157.5q0 141 -88.5 220t-263.5 79 q-128 0 -248 -27z" />
<glyph unicode="Q" horiz-adv-x="1390" d="M127 522q0 238 84 425.5t234 291.5t339 104q241 0 376.5 -150.5t135.5 -395.5q0 -305 -123 -513t-339 -276q224 -68 337 -317q-28 -25 -71 -31q-31 71 -68.5 124t-93 99t-136.5 70t-184 24q-233 4 -362 152t-129 393zM209 528q0 -223 113.5 -351t324.5 -128q176 0 305 95 t195.5 263t66.5 388q0 218 -115 347.5t-327 129.5q-168 0 -297.5 -97.5t-197.5 -266t-68 -380.5z" />
<glyph unicode="R" horiz-adv-x="1112" d="M100 0l228 1294q154 43 327 43q197 0 293 -88t96 -233q0 -190 -112 -309t-299 -148q153 -319 348 -555q-27 -6 -59 -6h-27q-191 234 -342 553h-37q-160 0 -242 10l-98 -561q-15 -6 -39 -6q-22 0 -37 6zM289 635q76 -14 241 -14q213 0 326 109t113 278q0 112 -82.5 185 t-245.5 73q-126 0 -246 -27z" />
<glyph unicode="S" horiz-adv-x="1026" d="M16 127q13 38 56 57q113 -139 358 -139q176 0 276.5 84t100.5 221q0 60 -20.5 106.5t-55 76.5t-80 54t-95 43l-99 38t-95 45.5t-80 59.5t-55 84.5t-20.5 117.5q0 168 120 266t316 98q246 0 363 -131q-17 -42 -56 -59q-119 119 -315 119q-158 0 -254 -78t-96 -211 q0 -54 20.5 -96t55 -69.5t80 -49.5t95 -41t99 -38.5t95 -47t80 -63t55 -89.5t20.5 -123q0 -174 -126 -282.5t-339 -108.5q-274 0 -404 156z" />
<glyph unicode="T" horiz-adv-x="1036" d="M156 1245q-2 8 -2 16q0 24 14 54h965q1 -8 1 -15q0 -27 -14 -55h-446l-217 -1245q-21 -6 -41 -6q-19 0 -37 6l219 1245h-442z" />
<glyph unicode="U" horiz-adv-x="1314" d="M164 367q0 60 14 149l139 799q21 6 41 6q22 0 37 -6l-139 -799q-14 -82 -14 -137q0 -151 84 -239.5t260 -88.5q110 0 192.5 33.5t135 98t83.5 143.5t50 186l141 803q18 6 39 6q22 0 37 -6l-144 -811q-21 -120 -60 -212.5t-103 -165.5t-162 -112t-226 -39 q-200 0 -302.5 104t-102.5 288z" />
<glyph unicode="V" horiz-adv-x="1165" d="M180 1313q24 8 45 8q27 0 35 -4q19 -353 68 -659t147 -595q456 497 653 1254q20 4 35 4q25 3 43 -8q-48 -185 -107.5 -348t-143 -331t-197.5 -329t-256 -307q-18 -6 -43 -6t-43 6q-109 309 -162 629t-74 686z" />
<glyph unicode="W" horiz-adv-x="1789" d="M201 1315q20 8 49 8q19 0 31 -4q7 -702 129 -1260q412 577 567 1223q20 4 39 4q21 0 33 -4v-58q0 -572 112 -1161q437 589 604 1256q10 2 35 2q29 0 41 -6q-196 -735 -651 -1317q-24 -6 -45 -6q-23 0 -41 6q-106 490 -115 965q0 21 -1 63t-1 64l-37 -125 q-92 -286 -216 -517.5t-294 -449.5q-24 -6 -45 -6q-23 0 -47 6q-129 512 -147 1317z" />
<glyph unicode="X" horiz-adv-x="1097" d="M-61 4l581 672l-311 639q24 8 59 8h25l289 -598l503 598h23q49 0 68 -8l-558 -656l334 -655q-24 -6 -59 -6h-25l-309 612l-528 -612h-39q-32 0 -53 6z" />
<glyph unicode="Y" d="M166 1315q32 8 53 8t27 -2l299 -674l10 -29l18 29l523 674q10 2 34 2q22 0 50 -8l-598 -770l-97 -545q-18 -6 -39 -6t-36 6l96 549z" />
<glyph unicode="Z" horiz-adv-x="1073" d="M-18 27q0 38 30 71l969 1102l41 45h-821q-1 9 -1 17q0 29 13 53h901l2 -21q0 -39 -35 -84l-970 -1104l-37 -36h850q1 -6 1 -12q0 -27 -14 -58h-925q-4 8 -4 27z" />
<glyph unicode="[" horiz-adv-x="534" d="M33 -371l313 1778h264q6 -36 -12 -70h-188l-289 -1638h188q6 -33 -12 -70h-264z" />
<glyph unicode="\" horiz-adv-x="929" d="M176 1288q24 4 39 4t35 -4l473 -1657q-24 -4 -37 -4q-17 0 -37 4z" />
<glyph unicode="]" horiz-adv-x="530" d="M-92 -371q-3 36 12 70h189l288 1638h-188q-6 33 12 70h264l-313 -1778h-264z" />
<glyph unicode="^" horiz-adv-x="1003" d="M152 750l477 634q39 9 76 0l258 -643q-24 -18 -62 -24l-244 602l-456 -602q-35 7 -49 33z" />
<glyph unicode="_" horiz-adv-x="837" d="M-117 -115q0 23 13 45h825l2 -14q0 -32 -14 -49h-824q-2 4 -2 18z" />
<glyph unicode="`" horiz-adv-x="428" d="M283 1325q20 47 59 61l238 -260q-8 -24 -33 -39z" />
<glyph unicode="a" horiz-adv-x="1069" d="M80 344q0 146 49 269t130.5 203t185 124.5t214.5 44.5q192 0 306 -82l-160 -907q-18 -3 -36 -3l-36 3l27 182v4q-75 -100 -169.5 -151t-195.5 -51q-64 0 -119.5 21.5t-100 64.5t-70 114.5t-25.5 163.5zM162 354q0 -144 67.5 -223.5t182.5 -79.5q99 0 198.5 67t173.5 193 l97 547q-75 55 -234 55q-93 0 -179.5 -39t-155 -108.5t-109.5 -177t-41 -234.5z" />
<glyph unicode="b" horiz-adv-x="1081" d="M78 57l229 1289q15 6 39 6q22 0 37 -6l-72 -408q113 47 250 47q186 0 297 -105.5t111 -291.5q0 -138 -43.5 -253t-119.5 -192t-178.5 -120t-219.5 -43q-203 0 -330 77zM162 104q92 -53 258 -53q204 0 336.5 145.5t132.5 376.5q0 158 -89.5 250t-254.5 92q-140 0 -248 -51 z" />
<glyph unicode="c" horiz-adv-x="944" d="M90 387q0 274 145.5 436t366.5 162q191 0 289 -102q-17 -39 -49 -56q-54 46 -110.5 67t-139.5 21q-99 0 -180 -42t-133.5 -113.5t-80.5 -165t-28 -197.5q0 -156 82 -251t237 -95q148 0 271 101q33 -20 39 -54q-137 -118 -324 -118q-176 0 -280.5 108.5t-104.5 298.5z" />
<glyph unicode="d" horiz-adv-x="1077" d="M84 381q0 268 164 436t414 168q143 0 239 -41l72 404q18 6 39 6q22 0 37 -6l-228 -1293q-134 -75 -321 -75q-193 0 -304.5 105.5t-111.5 295.5zM164 393q0 -161 91.5 -251.5t250.5 -90.5q141 0 246 45l137 772q-95 45 -234 45q-217 0 -354 -145t-137 -375z" />
<glyph unicode="e" horiz-adv-x="978" d="M88 381q0 139 42 254.5t113 191t163.5 117t195.5 41.5q137 0 217 -69.5t80 -176.5q0 -145 -120.5 -234t-356.5 -89q-141 0 -254 41q-2 -20 -2 -66q0 -164 84.5 -253t232.5 -89q70 0 130 20.5t91 42t66 54.5q35 -14 41 -53q-140 -133 -338 -133q-173 0 -279 102.5 t-106 298.5zM178 524q110 -39 252 -39q194 0 291.5 68.5t97.5 177.5q0 78 -59 131t-164 53q-151 0 -267 -105t-151 -286z" />
<glyph unicode="f" horiz-adv-x="598" d="M106 0l150 895h-145q-4 36 10 61h145l10 66q15 89 48.5 154t80.5 103t101 55.5t117 17.5q47 0 90 -11.5t63 -22t33 -20.5q-10 -40 -41 -59q-37 22 -70 31.5t-88 9.5q-96 0 -166 -59.5t-92 -188.5l-12 -76h289q3 -10 3 -19q0 -22 -14 -44l-288 2l-148 -895q-15 -6 -39 -6 q-19 0 -37 6z" />
<glyph unicode="g" horiz-adv-x="1073" d="M-12 -238q17 38 59 54q104 -138 320 -138q140 0 240 90.5t126 241.5l15 86q-138 -86 -279 -86q-174 0 -277.5 99.5t-103.5 277.5q0 142 47 257.5t126 188.5t179 112.5t209 39.5q207 0 318 -82l-156 -893q-34 -187 -152 -294t-297 -107q-137 0 -225 41t-149 112zM168 397 q0 -150 84.5 -233.5t234.5 -83.5q137 0 275 94l121 684q-83 55 -244 55q-95 0 -179.5 -34.5t-149.5 -98.5t-103.5 -163t-38.5 -220z" />
<glyph unicode="h" horiz-adv-x="1097" d="M74 0l237 1346q18 6 39 6q22 0 37 -6l-74 -416q133 55 301 55q105 0 178.5 -29t109.5 -80.5t48 -121.5q5 -28 4 -58q0 -45 -10 -94l-106 -602q-15 -6 -39 -6q-22 0 -37 6l104 586q9 43 9 83q0 23 -3 45q-9 60 -37 104.5t-88 69.5t-147 25q-90 0 -170.5 -16.5 t-128.5 -38.5l-151 -858q-15 -6 -39 -6q-22 0 -37 6z" />
<glyph unicode="i" horiz-adv-x="428" d="M78 0l168 961q18 6 41 6q22 0 37 -6l-170 -961q-18 -6 -39 -6q-22 0 -37 6zM262 1249q0 28 21 49t49 21q29 0 49 -21t20 -49q0 -29 -20 -50t-49 -21q-28 0 -49 21t-21 50z" />
<glyph unicode="j" horiz-adv-x="456" d="M-342 -326q14 43 47 60q72 -62 154 -62q84 0 149.5 61.5t87.5 192.5l176 1028q21 7 39 7q19 0 37 -7l-176 -1028q-29 -171 -113.5 -248t-201.5 -77q-120 0 -199 73zM289 1243q0 29 20.5 50.5t48.5 21.5q29 0 49.5 -21.5t20.5 -50.5t-20.5 -49t-49.5 -20q-28 0 -48.5 20 t-20.5 49z" />
<glyph unicode="k" horiz-adv-x="995" d="M74 0l237 1346q18 6 39 6q22 0 37 -6l-72 -412q112 51 275 51q156 0 244 -68t88 -182q0 -71 -28.5 -130t-79 -100t-110 -69t-131.5 -47l246 -387q-32 -8 -53 -8q-27 0 -39 2l-229 364q-17 36 -17 66v6q179 45 270 114t91 179q0 90 -69 140t-198 50q-160 0 -274 -57 l-151 -858q-15 -6 -39 -6q-22 0 -37 6z" />
<glyph unicode="l" horiz-adv-x="559" d="M100 147q0 23 6 50l203 1153q16 4 37 4q17 0 37 -4l-201 -1147q-4 -28 -4 -39q0 -53 30 -81t83 -28q43 0 74.5 14t68.5 44q37 -19 37 -54q-85 -73 -190 -73q-83 0 -132 41t-49 120z" />
<glyph unicode="m" horiz-adv-x="1660" d="M68 0l159 903q150 82 351 82q200 0 278 -115q166 115 348 115q160 0 237 -75t77 -203q0 -55 -9 -105l-112 -602q-15 -6 -39 -6q-22 0 -37 6l106 573q11 64 11 107q0 108 -59.5 170.5t-188.5 62.5q-167 0 -305 -102q16 -56 16 -113q0 -52 -8 -96l-107 -602q-18 -6 -41 -6 q-18 0 -36 6l102 573q10 58 10 99q0 241 -260 241q-160 0 -264 -51l-154 -862q-15 -6 -39 -6q-21 0 -36 6z" />
<glyph unicode="n" horiz-adv-x="1091" d="M68 0l157 903q164 82 383 82q175 0 257.5 -76t82.5 -209q0 -43 -10 -98l-107 -602q-15 -6 -38 -6q-22 0 -37 6l104 586q8 41 8 92q0 235 -276 235q-90 0 -170.5 -16.5t-128.5 -38.5l-150 -858q-15 -6 -39 -6q-21 0 -36 6z" />
<glyph unicode="o" d="M88 389q0 165 61 300.5t177 216.5t266 81q180 0 277.5 -112t97.5 -300q0 -165 -59 -299.5t-172 -215t-261 -80.5q-183 0 -285 111.5t-102 297.5zM168 403q0 -160 81 -257t236 -97q94 0 171.5 43t127.5 115t77.5 163.5t27.5 190.5q0 162 -77 258t-230 96q-99 0 -179.5 -44 t-130.5 -117t-77 -163.5t-27 -187.5z" />
<glyph unicode="p" horiz-adv-x="1079" d="M2 -383l225 1286q157 82 330 82q194 0 302 -102.5t108 -284.5q0 -146 -43.5 -265t-118.5 -195t-174 -117t-213 -41q-161 0 -268 49l-72 -412q-18 -6 -39 -6q-22 0 -37 6zM164 104q100 -53 266 -53q96 0 179.5 36t145 102.5t97 168t35.5 226.5q0 155 -86.5 243t-259.5 88 q-133 0 -246 -55z" />
<glyph unicode="q" horiz-adv-x="1079" d="M86 377q0 134 44.5 249t120.5 193t178.5 122t217.5 44q211 0 330 -82l-229 -1286q-18 -6 -39 -6q-22 0 -37 6l80 449q-123 -86 -283 -86q-174 0 -278.5 105.5t-104.5 291.5zM166 385q0 -154 82.5 -243t228.5 -89q172 0 291 101l125 708q-94 51 -254 51 q-204 0 -338.5 -147.5t-134.5 -380.5z" />
<glyph unicode="r" horiz-adv-x="712" d="M68 0l157 903q153 82 355 82q110 0 178 -22q-6 -38 -31 -70q-65 20 -164 20q-75 0 -149 -16t-119 -39l-150 -858q-18 -6 -41 -6q-21 0 -36 6z" />
<glyph unicode="s" horiz-adv-x="868" d="M16 96q17 42 50 58q49 -46 118 -74.5t183 -28.5q127 0 200.5 59.5t73.5 157.5q0 57 -27.5 96t-71 59.5t-96.5 36t-106 33t-96.5 42.5t-71 72t-27.5 114q0 115 97 189.5t258 74.5q106 0 185 -28.5t118 -65.5q-14 -35 -45 -57q-104 81 -271 81q-119 0 -191.5 -52.5 t-72.5 -135.5q0 -52 27.5 -88.5t71 -56t96.5 -34.5t106 -33.5t96.5 -44t71 -73.5t27.5 -116q0 -136 -101.5 -217.5t-263.5 -81.5q-120 0 -205 33t-133 81z" />
<glyph unicode="t" horiz-adv-x="743" d="M90 893v16q0 27 12 47h211l47 263q15 6 39 6q23 0 35 -6l-45 -263h365l2 -16q0 -25 -15 -47h-364l-103 -588q-12 -52 -12 -106q0 -79 44.5 -114.5t119.5 -35.5q57 0 98.5 16.5t93.5 49.5q31 -22 31 -58q-117 -77 -239 -77q-101 0 -163.5 49.5t-62.5 148.5q0 40 11 101 l108 614h-213z" />
<glyph unicode="u" horiz-adv-x="1079" d="M115 254q0 38 10 96l104 602q21 6 41 6q22 0 37 -6l-102 -579q-8 -49 -8 -101q0 -106 60 -164.5t200 -58.5q159 0 301 57l147 846q18 6 41 6q22 0 37 -6l-160 -895q-180 -82 -383 -82q-164 0 -244.5 73.5t-80.5 205.5z" />
<glyph unicode="v" horiz-adv-x="968" d="M133 950q24 6 51 6q19 0 31 -4q1 -206 38 -470t73 -390q8 -23 10 -37q4 5 22 23q191 144 327 348t136 352q0 104 -37 183q8 4 35 4q23 0 47 -4q35 -74 35 -181q0 -119 -79 -270t-203.5 -287t-260.5 -225q-18 -6 -41 -6q-26 0 -41 6q-52 164 -94.5 444t-48.5 508z" />
<glyph unicode="w" horiz-adv-x="1488" d="M131 950q24 6 49 6q19 0 31 -4q1 -208 44 -471t85 -387q2 -12 10 -41q8 10 23 25q89 90 167.5 208.5t133 258t55.5 254.5q-4 48 -8 151q24 6 49 6q19 0 31 -4q0 -214 40 -470t83 -388q7 -22 10 -41q4 5 24 25q150 139 266.5 342.5t116.5 361.5q0 107 -38 181q12 4 40 4 q17 0 41 -4q33 -70 33 -181q0 -123 -71.5 -279.5t-175.5 -289t-212 -215.5q-18 -6 -40 -6q-26 0 -41 6q-73 213 -125 590q-49 -167 -156 -329t-223 -261q-18 -6 -41 -6q-27 0 -39 6q-60 166 -109 445.5t-53 506.5z" />
<glyph unicode="x" horiz-adv-x="905" d="M-47 2l444 494l-254 456q18 6 45 9h37l228 -418l362 422q12 1 23 1q36 0 61 -10l-412 -473l275 -479q-16 -8 -39 -8q-22 -4 -41 0l-250 438l-395 -440q-16 -1 -29 -1q-40 0 -55 9z" />
<glyph unicode="y" horiz-adv-x="1079" d="M18 -258q16 41 60 53q91 -117 287 -117q154 0 247.5 87.5t120.5 244.5l19 103q-153 -82 -322 -82q-182 0 -255 101q-51 71 -51 177q0 45 9 97l96 546q18 6 39 6q22 0 37 -6l-92 -526q-11 -49 -11 -93q0 -17 2 -34q6 -59 30 -102.5t81.5 -68t145.5 -24.5q157 0 305 89 l133 759q18 6 41 6t35 -6l-166 -942q-33 -190 -148 -295.5t-299 -105.5q-243 0 -344 133z" />
<glyph unicode="z" horiz-adv-x="935" d="M-16 16q0 8 2.5 15.5t10 17.5t11.5 15t17 19.5t16 18.5l694 762l29 25h-627q-1 7 -1 14q0 25 11 51h711q2 -4 2 -18q0 -38 -43 -84l-651 -715q134 -90 311 -90q158 0 311 66q23 -21 23 -52v-8q-148 -71 -340 -71q-207 0 -358 98l-86 -94q-43 0 -43 30z" />
<glyph unicode="{" horiz-adv-x="583" d="M55 508q0 26 15 53h55q63 0 99.5 46t54.5 143l69 399q20 114 82 186t162 72h70q3 -34 -13 -70h-67q-65 0 -103 -45.5t-55 -142.5l-70 -399q-28 -174 -135 -226q86 -51 55 -225l-73 -412q-15 -92 7 -134t87 -42h67q3 -35 -12 -69h-69q-100 0 -136.5 68t-17.5 177l72 412 q17 96 -3.5 142t-84.5 46h-54q-2 6 -2 21z" />
<glyph unicode="|" horiz-adv-x="462" d="M35 -352l307 1738q36 13 70 0l-308 -1738q-15 -6 -35.5 -6t-33.5 6z" />
<glyph unicode="}" horiz-adv-x="583" d="M-90 -358q-3 34 12 69h68q65 0 101.5 42t51.5 134l74 412q27 170 135 225q-87 51 -55 226l70 399q17 96 -4.5 142t-86.5 46h-67q-3 33 12 70h70q100 0 135.5 -72t15.5 -186l-69 -399q-17 -96 3.5 -142.5t82.5 -46.5h55q2 -6 2 -22q0 -27 -14 -52h-56q-63 0 -99 -45.5 t-54 -142.5l-74 -412q-19 -109 -79 -177t-160 -68h-70z" />
<glyph unicode="~" horiz-adv-x="1048" d="M123 393q86 131 235 131q62 0 162 -43t146 -43q109 0 168 92q40 0 55 -30q-40 -65 -101.5 -100t-134.5 -35q-61 0 -159 43t-148 43q-110 0 -168 -91q-40 6 -55 33z" />
<glyph unicode="&#xa1;" horiz-adv-x="432" d="M16 -352q106 578 199 1014q8 2 23 2q14 0 20 -2q-73 -520 -160 -1014q-21 -6 -41 -6q-23 0 -41 6zM207 918q0 28 19.5 48.5t47.5 20.5q29 0 49.5 -20.5t20.5 -48.5t-20.5 -48t-49.5 -20q-28 0 -47.5 20t-19.5 48z" />
<glyph unicode="&#xa2;" horiz-adv-x="974" d="M123 541q0 128 40 234t108.5 175.5t155 110.5t183.5 49l39 221q10 2 33 2t31 -2l-37 -219q173 -5 276 -108q-18 -38 -55 -56q-91 87 -233 92l-142 -819h8q85 0 149 25t126 71q32 -19 35 -57q-154 -110 -322 -110h-8l-37 -209q-20 -4 -33 -4q-10 0 -30 4l36 213 q-148 19 -235.5 118.5t-87.5 268.5zM203 553q0 -137 67.5 -222t188.5 -104l139 811q-177 -17 -286 -151t-109 -334z" />
<glyph unicode="&#xa3;" horiz-adv-x="1060" d="M82 0q4 59 39 121q63 107 94.5 206.5t44.5 266.5h-149q-3 35 12 70h141q4 126 4 221q0 110 33.5 198.5t91.5 145.5t135 87t166 30q210 0 312 -121q-13 -40 -54 -58q-98 109 -268 109q-155 0 -246.5 -106.5t-91.5 -268.5q0 -135 -6 -237h379q5 -31 -12 -70h-371 q-9 -121 -32.5 -218t-40 -136.5t-60.5 -133.5q-13 -26 -13 -34h717v-19q0 -21 -12 -53h-813z" />
<glyph unicode="&#xa4;" horiz-adv-x="1224" d="M121 209l125 113q-72 101 -72 251q0 223 135 371l-84 94q15 34 49 49l82 -94q126 107 308 107q185 0 299 -117l127 115q29 -14 45 -47l-129 -115q71 -104 71 -252q0 -111 -36 -209t-105 -170l82 -90q-18 -35 -51 -49l-80 90q-121 -94 -293 -94q-192 0 -305 110l-125 -112 q-32 18 -43 49zM248 582q0 -164 97.5 -255t256.5 -91q127 0 219.5 61.5t137.5 160.5t45 220q0 162 -97.5 255t-249.5 93q-185 0 -297 -127.5t-112 -316.5z" />
<glyph unicode="&#xa5;" horiz-adv-x="1064" d="M166 328v14q0 26 10 51h287l31 172h-287v15q0 22 12 49h256l-287 674q24 6 56 6q22 0 28 -2l265 -637l8 -25l16 25l492 637q8 2 32 2q27 0 45 -6l-520 -674h254v-15q0 -25 -12 -49h-281l-30 -172h282v-14q0 -24 -12 -51h-283l-57 -328q-18 -6 -41 -6q-22 0 -37 6l58 328 h-285z" />
<glyph unicode="&#xa6;" horiz-adv-x="460" d="M35 -352l125 708q41 14 69 0l-125 -708q-15 -6 -35.5 -6t-33.5 6zM217 678l125 708q15 6 36.5 6t33.5 -6l-125 -708q-15 -6 -35.5 -6t-34.5 6z" />
<glyph unicode="&#xa7;" horiz-adv-x="1052" d="M29 -76q14 45 55 60q43 -41 75 -63.5t93.5 -42t140.5 -19.5q114 0 211.5 54t156.5 154t60 226q0 65 -22 119t-70 114l-223 275q19 39 63 53l224 -268q104 -130 104 -287q-2 -146 -74 -265t-188 -184t-250 -65q-69 0 -124.5 11t-99 34t-70 42.5t-62.5 51.5zM158 831 q2 146 74.5 265.5t189 184.5t250.5 65q68 0 123 -11t98 -33.5t70.5 -43t62.5 -52.5q-14 -44 -55 -59q-42 41 -73.5 63.5t-93 42t-140.5 19.5q-114 0 -212 -54t-158 -153.5t-61 -224.5q0 -66 22 -121t71 -117l223 -274q-20 -38 -64 -52l-221 269q-108 130 -106 286z" />
<glyph unicode="&#xa8;" horiz-adv-x="645" d="M276 1235q0 26 20.5 45.5t47.5 19.5q28 0 47 -19t19 -46q0 -28 -19 -48t-47 -20q-27 0 -47.5 20.5t-20.5 47.5zM672 1235q0 26 20.5 45.5t46.5 19.5q27 0 46.5 -19t19.5 -46q0 -28 -19 -48t-47 -20q-27 0 -47 20.5t-20 47.5z" />
<glyph unicode="&#xa9;" horiz-adv-x="1497" d="M127 530q0 225 89.5 401.5t253 276t374.5 99.5q165 0 291.5 -76.5t193 -206.5t66.5 -291q0 -229 -89 -405.5t-250.5 -273.5t-371.5 -97q-252 0 -404.5 161.5t-152.5 411.5zM190 539q0 -226 137 -373.5t367 -147.5q285 0 461 195.5t176 509.5q0 225 -136 373.5t-361 148.5 q-192 0 -339 -90.5t-226 -250.5t-79 -365zM412 569q0 100 33.5 185.5t90 142.5t131 89t156.5 32q146 0 236 -86q-13 -34 -49 -55q-69 73 -199 73q-149 0 -238.5 -108t-89.5 -260q0 -126 64.5 -200.5t183.5 -74.5q129 0 230 90q29 -16 32 -53q-61 -51 -123.5 -77.5 t-150.5 -26.5q-139 0 -223 87t-84 242z" />
<glyph unicode="&#xaa;" horiz-adv-x="743" d="M170 868q0 110 80.5 173t202.5 63q95 0 172 -43l12 65q16 89 -26.5 130.5t-125.5 41.5q-104 2 -192 -63q-29 13 -29 45q102 82 238 82q108 0 164 -58t34 -180l-65 -370q-120 -56 -254 -56q-102 0 -156.5 46.5t-54.5 123.5zM240 881q0 -58 40 -90.5t115 -32.5q94 0 183 33 l36 206q-76 50 -168 50q-97 0 -151.5 -46t-54.5 -120z" />
<glyph unicode="&#xab;" horiz-adv-x="786" d="M88 524l299 299q26 -9 31 -32l-232 -265l142 -264q-14 -22 -43 -31zM354 524l299 299q24 -9 29 -32l-231 -265l141 -264q-14 -22 -43 -31z" />
<glyph unicode="&#xad;" horiz-adv-x="757" d="M141 481v21q0 23 13 45h446v-15q0 -27 -12 -51h-447z" />
<glyph unicode="&#xae;" horiz-adv-x="1495" d="M164 739q0 225 89 401.5t252.5 276t375.5 99.5q165 0 291.5 -76t193 -205.5t66.5 -290.5q0 -229 -89 -406t-250.5 -274.5t-371.5 -97.5q-252 0 -404.5 161.5t-152.5 411.5zM227 750q0 -228 137 -375.5t367 -147.5q285 0 461 196.5t176 510.5q0 147 -59.5 264.5 t-174 186.5t-264.5 69q-192 0 -339 -90t-225.5 -249.5t-78.5 -364.5zM496 457l133 749h2l2 15q100 28 211 28q128 0 193 -54.5t65 -150.5q0 -97 -54.5 -164t-150.5 -94l123 -331q-24 -6 -43 -6h-29l-123 325q-14 -2 -47 -2q-91 0 -160 14l-59 -329q-12 -6 -29 -6 q-19 0 -34 6zM629 850q59 -19 159 -16q129 1 187.5 56.5t58.5 141.5q0 71 -49.5 113.5t-150.5 42.5q-85 0 -148 -14z" />
<glyph unicode="&#xaf;" horiz-adv-x="608" d="M266 1190q0 16 13 49h491l2 -16q0 -28 -14 -49h-490q-2 4 -2 16z" />
<glyph unicode="&#xb0;" horiz-adv-x="673" d="M209 1157q0 94 67 160.5t162 66.5q94 0 162 -67t68 -160q0 -95 -68 -162t-162 -67q-95 0 -162 67t-67 162zM266 1157q0 -71 51 -121.5t121 -50.5t120 50.5t50 121.5t-50 120.5t-120 49.5q-71 0 -121.5 -50t-50.5 -120z" />
<glyph unicode="&#xb1;" horiz-adv-x="1036" d="M47 12q-7 36 12 68h750q3 -9 -1 -33.5t-11 -34.5h-750zM145 575q-6 30 13 68h342l59 338q12 5 35.5 5t32.5 -5l-60 -338h340q4 -11 0 -34.5t-10 -33.5h-342l-59 -339q-38 -13 -68 -3l59 342h-342z" />
<glyph unicode="&#xb4;" horiz-adv-x="415" d="M242 1128l319 261q40 -21 49 -68l-340 -236q-19 15 -28 43z" />
<glyph unicode="&#xb6;" horiz-adv-x="1091" d="M119 838q0 221 148 356t417 135q191 0 330 -51l-4 -14h2l-287 -1620q-18 -6 -39 -6q-19 0 -37 6l152 860q-125 -25 -256 -25q-208 0 -317 96.5t-109 262.5zM201 844q0 -138 89 -215.5t267 -77.5q137 0 258 27l113 647q-109 32 -256 32q-229 0 -350 -113.5t-121 -299.5z M362 -356l115 651q24 4 39 4t35 -4l-115 -651q-15 -6 -37 -6t-37 6z" />
<glyph unicode="&#xb7;" horiz-adv-x="436" d="M164 676q0 28 20.5 48.5t48.5 20.5q29 0 50.5 -20.5t21.5 -48.5q0 -29 -21.5 -49.5t-50.5 -20.5q-28 0 -48.5 20.5t-20.5 49.5z" />
<glyph unicode="&#xb8;" horiz-adv-x="419" d="M-12 -369q7 35 26 54q38 -15 90 -15q66 0 111 26t45 77q0 44 -32.5 61.5t-118.5 30.5l63 141h59l-41 -98q71 -15 106.5 -42.5t35.5 -82.5q0 -46 -21.5 -80.5t-57 -53t-74.5 -27.5t-81 -9q-85 0 -110 18z" />
<glyph unicode="&#xba;" horiz-adv-x="825" d="M188 983q0 169 97.5 274t246.5 105q123 0 195 -76.5t72 -208.5q0 -167 -96.5 -272t-245.5 -105q-125 0 -197 76.5t-72 206.5zM258 993q0 -106 54 -167.5t155 -61.5q122 0 193 85.5t71 219.5q0 106 -54 167.5t-155 61.5q-122 0 -193 -85.5t-71 -219.5z" />
<glyph unicode="&#xbb;" horiz-adv-x="794" d="M90 262l232 260l-138 269q12 23 41 32l195 -299l-299 -293q-25 8 -31 31zM362 262l234 260l-139 269q16 24 43 32l192 -299l-297 -293q-28 9 -33 31z" />
<glyph unicode="&#xbc;" horiz-adv-x="1437" d="M49 -98l1184 1448q39 9 78 0l-1184 -1448q-43 -9 -78 0zM174 1200q23 12 61 31q115 59 145.5 71.5t59.5 12.5q13 0 25 -4l-135 -772q-10 -2 -35 -2q-27 0 -37 2l123 696l-182 -92q-25 25 -25 57zM774 178q-18 62 23 119l346 496q37 0 61 -31l-323 -457q-27 -37 -27 -61 h293l41 233q12 2 35 2q20 0 32 -2l-41 -233h101q0 -15 -2 -21q0 -13 -8 -45h-103l-31 -178q-24 -4 -34 -4q-13 0 -33 4l31 178h-361z" />
<glyph unicode="&#xbd;" horiz-adv-x="1449" d="M55 -98l1184 1448q41 9 78 0l-1184 -1448q-41 -9 -78 0zM174 1200q23 12 61 31q115 59 145.5 71.5t59.5 12.5q13 0 25 -4l-135 -772q-10 -2 -35 -2q-27 0 -37 2l123 696l-182 -92q-25 25 -25 57zM780 12q0 32 35 60q294 265 364 345t70 165q0 57 -42 94t-105 37 q-104 0 -184 -76q-33 7 -37 39q94 102 231 102q88 0 147.5 -49.5t59.5 -140.5q0 -28 -4.5 -53.5t-20 -54t-27 -49.5t-42.5 -55t-49.5 -54t-66 -63t-72.5 -65t-86 -76l-48 -42l-20 -13l32 3h381q4 -30 -12 -66h-502q-2 2 -2 12z" />
<glyph unicode="&#xbe;" horiz-adv-x="1507" d="M113 631q11 32 45 49q26 -25 43.5 -37.5t56.5 -23.5t94 -11q92 0 157.5 56.5t65.5 152.5q0 166 -208 166h-41q-2 2 -2 10q0 21 22 43l219 213h-366q0 38 12 66h471q0 -35 -29 -64l-229 -213q103 -5 162 -56t59 -151q0 -57 -17 -104.5t-46 -80.5t-68 -56t-82.5 -34 t-89.5 -11q-153 0 -229 86zM174 -98l1184 1448q40 9 78 0l-1184 -1448q-44 -9 -78 0zM840 178q-17 61 24 119l346 496q34 0 62 -31l-324 -457q-28 -39 -26 -61h290l41 233q12 2 35 2q21 0 33 -2l-41 -233h102q-1 -3 -2 -11t-2 -12q0 -19 -8 -43h-102l-31 -178q-24 -4 -35 -4 q-13 0 -33 4l31 178h-360z" />
<glyph unicode="&#xbf;" horiz-adv-x="786" d="M-14 -51q1 71 24 129t59.5 98.5t81 77t90.5 73t85.5 77.5t68.5 100t37 131q12 4 39 4q17 0 25 -4q-7 -81 -34.5 -147t-66 -109.5t-83.5 -81t-89 -71.5t-80 -70t-58 -86.5t-22 -112.5q0 -106 67 -167.5t185 -61.5q130 0 232 73q35 -17 35 -49q-57 -45 -128.5 -71.5 t-142.5 -26.5q-152 0 -239 78t-86 217zM399 909q0 28 21 48t49 20q29 0 48.5 -20t19.5 -48q0 -29 -19.5 -49t-48.5 -20q-28 0 -49 20t-21 49z" />
<glyph unicode="&#xc0;" horiz-adv-x="1138" d="M-53 6l712 1309q12 4 39 4q25 0 37 -4l271 -1309q-21 -12 -54 -12q-14 0 -26 4l-84 420h-590l-227 -420q-8 -2 -29 -2q-29 0 -49 10zM289 487h538l-133 662l-12 76l-37 -78zM545 1585q12 47 49 70l287 -211q-8 -27 -27 -43z" />
<glyph unicode="&#xc1;" horiz-adv-x="1138" d="M-53 6l712 1309q12 4 39 4q25 0 37 -4l271 -1309q-21 -12 -54 -12q-14 0 -26 4l-84 420h-590l-227 -420q-8 -2 -29 -2q-29 0 -49 10zM289 487h538l-133 662l-12 76l-37 -78zM528 1442l357 207q29 -18 35 -68l-371 -180q-18 16 -21 41z" />
<glyph unicode="&#xc2;" horiz-adv-x="1138" d="M-53 6l712 1309q12 4 39 4q25 0 37 -4l271 -1309q-21 -12 -54 -12q-14 0 -26 4l-84 420h-590l-227 -420q-8 -2 -29 -2q-29 0 -49 10zM289 487h538l-133 662l-12 76l-37 -78zM453 1425l258 217q34 6 61 0l184 -217q-9 -21 -36 -39l-187 191l-256 -191q-21 12 -24 39z" />
<glyph unicode="&#xc3;" horiz-adv-x="1138" d="M-53 6l712 1309q12 4 39 4q25 0 37 -4l271 -1309q-21 -12 -54 -12q-14 0 -26 4l-84 420h-590l-227 -420q-8 -2 -29 -2q-29 0 -49 10zM289 487h538l-133 662l-12 76l-37 -78zM403 1464q44 73 89.5 106.5t113.5 33.5q47 0 95 -23t91.5 -45.5t79.5 -22.5q37 0 67 25t48 68 q37 0 55 -21q-28 -67 -73 -103t-101 -36q-48 0 -95 22.5t-90 45t-81 22.5q-46 0 -79 -24t-66 -72q-40 4 -54 24z" />
<glyph unicode="&#xc4;" horiz-adv-x="1138" d="M-53 6l712 1309q12 4 39 4q25 0 37 -4l271 -1309q-21 -12 -54 -12q-14 0 -26 4l-84 420h-590l-227 -420q-8 -2 -29 -2q-29 0 -49 10zM289 487h538l-133 662l-12 76l-37 -78zM461 1538q0 26 19.5 46t45.5 20q28 0 48 -20t20 -46q0 -27 -20 -46t-48 -19q-27 0 -46 19 t-19 46zM854 1538q0 26 20 46t46 20q28 0 47.5 -20t19.5 -46q0 -28 -19.5 -46.5t-47.5 -18.5q-27 0 -46.5 19t-19.5 46z" />
<glyph unicode="&#xc5;" horiz-adv-x="1138" d="M-53 6l712 1309q12 4 39 4q25 0 37 -4l271 -1309q-21 -12 -54 -12q-14 0 -26 4l-84 420h-590l-227 -420q-8 -2 -29 -2q-29 0 -49 10zM289 487h538l-133 662l-12 76l-37 -78zM547 1495q0 91 57.5 149t134.5 58q73 0 115.5 -43.5t42.5 -110.5q0 -97 -55 -153t-137 -56 q-73 0 -115.5 44t-42.5 112zM606 1503q0 -47 27 -76.5t80 -29.5q57 0 91 39t34 104q0 46 -26 75.5t-79 29.5t-90 -41t-37 -101z" />
<glyph unicode="&#xc6;" horiz-adv-x="1544" d="M-90 4l975 1311h674q3 -36 -15 -72h-559l-106 -610h499q5 -38 -12 -72h-502l-86 -489h588q6 -35 -12 -72h-664l98 561h-378l-420 -563q-16 -4 -27 -4q-26 0 -53 10zM463 633h338l98 555l8 45l-33 -47z" />
<glyph unicode="&#xc7;" horiz-adv-x="1189" d="M125 522q0 177 53 330t146 260.5t224 169t283 61.5q242 0 379 -137q-17 -40 -53 -57q-126 123 -338 123q-180 0 -320 -96t-216 -264.5t-76 -381.5q0 -223 115 -352t325 -129q225 0 371 125q36 -9 39 -51q-165 -143 -406 -148l-28 -67q71 -15 106 -42.5t35 -82.5 q0 -46 -21.5 -80.5t-57 -53t-74.5 -27.5t-81 -9q-85 0 -110 18q7 35 26 54q38 -15 91 -15q65 0 110 26t45 77q0 44 -32.5 61.5t-118.5 30.5l51 112q-223 13 -345 160t-122 385z" />
<glyph unicode="&#xc8;" horiz-adv-x="1050" d="M100 0l234 1315h731q5 -37 -12 -72h-658l-92 -522h596q5 -35 -12 -72h-596l-103 -577h684q5 -38 -14 -72h-758zM559 1585q12 47 49 70l287 -211q-8 -27 -27 -43z" />
<glyph unicode="&#xc9;" horiz-adv-x="1050" d="M100 0l234 1315h731q5 -37 -12 -72h-658l-92 -522h596q5 -35 -12 -72h-596l-103 -577h684q5 -38 -14 -72h-758zM541 1442l356 207q29 -18 35 -68l-371 -180q-17 15 -20 41z" />
<glyph unicode="&#xca;" horiz-adv-x="1050" d="M100 0l234 1315h731q5 -37 -12 -72h-658l-92 -522h596q5 -35 -12 -72h-596l-103 -577h684q5 -38 -14 -72h-758zM465 1425l258 217q34 6 61 0l185 -217q-9 -20 -37 -39l-187 191l-256 -191q-21 12 -24 39z" />
<glyph unicode="&#xcb;" horiz-adv-x="1050" d="M100 0l234 1315h731q5 -37 -12 -72h-658l-92 -522h596q5 -35 -12 -72h-596l-103 -577h684q5 -38 -14 -72h-758zM475 1538q0 26 20 46t46 20q27 0 47 -20t20 -46q0 -28 -19.5 -46.5t-47.5 -18.5q-27 0 -46.5 19t-19.5 46zM868 1538q0 26 20 46t46 20q28 0 47.5 -20 t19.5 -46q0 -28 -19.5 -46.5t-47.5 -18.5q-27 0 -46.5 19t-19.5 46z" />
<glyph unicode="&#xcc;" horiz-adv-x="477" d="M102 0l232 1315q18 6 39 6q22 0 37 -6l-232 -1315q-18 -6 -39 -6q-22 0 -37 6zM229 1585q12 46 50 70l286 -211q-8 -28 -26 -43z" />
<glyph unicode="&#xcd;" horiz-adv-x="477" d="M102 0l232 1315q18 6 39 6q22 0 37 -6l-232 -1315q-18 -6 -39 -6q-22 0 -37 6zM213 1442l356 207q29 -18 35 -68l-371 -180q-17 15 -20 41z" />
<glyph unicode="&#xce;" horiz-adv-x="477" d="M102 0l232 1315q18 6 39 6q22 0 37 -6l-232 -1315q-18 -6 -39 -6q-22 0 -37 6zM174 1415l232 227q24 3 51 0l149 -225q-11 -23 -37 -33l-149 189l-215 -191q-25 8 -31 33z" />
<glyph unicode="&#xcf;" horiz-adv-x="477" d="M102 0l232 1315q18 6 39 6q22 0 37 -6l-232 -1315q-18 -6 -39 -6q-22 0 -37 6zM184 1538q0 26 20 46t46 20q27 0 46 -19.5t19 -46.5q0 -28 -18.5 -46.5t-46.5 -18.5q-27 0 -46.5 19t-19.5 46zM502 1538q0 26 19.5 46t45.5 20q27 0 46.5 -19.5t19.5 -46.5q0 -28 -19 -46.5 t-47 -18.5q-27 0 -46 19t-19 46z" />
<glyph unicode="&#xd0;" horiz-adv-x="1331" d="M37 627q-4 36 10 55h174l111 625q162 26 307 26q290 0 446 -147.5t156 -411.5q0 -125 -31.5 -240t-97.5 -216t-160 -175.5t-227 -117.5t-291 -43q-196 0 -332 20l111 625h-176zM190 70q119 -17 259 -17q174 0 312 58t223.5 157.5t130 226t44.5 269.5q0 237 -136 366.5 t-396 129.5q-120 0 -228 -15l-100 -563h190q3 -31 -10 -55h-190z" />
<glyph unicode="&#xd1;" horiz-adv-x="1335" d="M102 0l230 1309q37 18 74 10l565 -1161l14 -35l6 47l203 1147q18 6 37 6q22 0 37 -6l-232 -1311q-33 -10 -71 -10l-564 1151l-18 45l-6 -53l-201 -1139q-18 -6 -39 -6q-20 0 -35 6zM518 1464q44 73 89.5 106.5t113.5 33.5q47 0 95 -23t91.5 -45.5t79.5 -22.5q37 0 67 25 t48 68q38 0 55 -21q-28 -67 -73 -103t-101 -36q-48 0 -95 22.5t-90 45t-81 22.5q-46 0 -80 -24.5t-66 -71.5q-39 3 -53 24z" />
<glyph unicode="&#xd2;" horiz-adv-x="1390" d="M127 522q0 238 84 425.5t234 291.5t339 104q241 0 376.5 -150.5t135.5 -395.5q0 -374 -181.5 -597t-481.5 -223q-239 0 -372.5 148t-133.5 397zM209 528q0 -223 113.5 -351t324.5 -128q176 0 305 95t195.5 263t66.5 388q0 218 -115 347.5t-327 129.5q-168 0 -297.5 -97.5 t-197.5 -266t-68 -380.5zM635 1585q12 47 49 70l287 -211q-8 -27 -27 -43z" />
<glyph unicode="&#xd3;" horiz-adv-x="1390" d="M127 522q0 238 84 425.5t234 291.5t339 104q241 0 376.5 -150.5t135.5 -395.5q0 -374 -181.5 -597t-481.5 -223q-239 0 -372.5 148t-133.5 397zM209 528q0 -223 113.5 -351t324.5 -128q176 0 305 95t195.5 263t66.5 388q0 218 -115 347.5t-327 129.5q-168 0 -297.5 -97.5 t-197.5 -266t-68 -380.5zM618 1442l357 207q29 -18 35 -68l-371 -180q-18 16 -21 41z" />
<glyph unicode="&#xd4;" horiz-adv-x="1390" d="M127 522q0 238 84 425.5t234 291.5t339 104q241 0 376.5 -150.5t135.5 -395.5q0 -374 -181.5 -597t-481.5 -223q-239 0 -372.5 148t-133.5 397zM209 528q0 -223 113.5 -351t324.5 -128q176 0 305 95t195.5 263t66.5 388q0 218 -115 347.5t-327 129.5q-168 0 -297.5 -97.5 t-197.5 -266t-68 -380.5zM543 1425l258 217q34 6 61 0l185 -217q-9 -20 -37 -39l-187 191l-256 -191q-21 12 -24 39z" />
<glyph unicode="&#xd5;" horiz-adv-x="1390" d="M127 522q0 238 84 425.5t234 291.5t339 104q241 0 376.5 -150.5t135.5 -395.5q0 -374 -181.5 -597t-481.5 -223q-239 0 -372.5 148t-133.5 397zM209 528q0 -223 113.5 -351t324.5 -128q176 0 305 95t195.5 263t66.5 388q0 218 -115 347.5t-327 129.5q-168 0 -297.5 -97.5 t-197.5 -266t-68 -380.5zM494 1464q45 73 89.5 106.5t112.5 33.5q47 0 95 -23t92 -45.5t80 -22.5q75 0 114 93q39 0 56 -21q-28 -67 -73.5 -103t-101.5 -36q-48 0 -95 22.5t-90 45t-81 22.5q-46 0 -79 -24t-66 -72q-39 3 -53 24z" />
<glyph unicode="&#xd6;" horiz-adv-x="1390" d="M127 522q0 238 84 425.5t234 291.5t339 104q241 0 376.5 -150.5t135.5 -395.5q0 -374 -181.5 -597t-481.5 -223q-239 0 -372.5 148t-133.5 397zM209 528q0 -223 113.5 -351t324.5 -128q176 0 305 95t195.5 263t66.5 388q0 218 -115 347.5t-327 129.5q-168 0 -297.5 -97.5 t-197.5 -266t-68 -380.5zM551 1538q0 26 19.5 46t45.5 20q28 0 48 -20t20 -46q0 -27 -20 -46t-48 -19q-27 0 -46 19t-19 46zM944 1538q0 26 20 46t46 20q28 0 47.5 -20t19.5 -46q0 -28 -19.5 -46.5t-47.5 -18.5q-27 0 -46.5 19t-19.5 46z" />
<glyph unicode="&#xd7;" horiz-adv-x="874" d="M86 231l293 258l-201 259q23 33 55 47l199 -256l293 258q26 -18 39 -49l-293 -261l201 -258q-18 -28 -56 -47l-200 258l-291 -258q-21 12 -39 49z" />
<glyph unicode="&#xd8;" horiz-adv-x="1390" d="M127 522q0 238 84 425.5t234 291.5t339 104q185 0 310 -92l112 166q38 -3 51 -35l-114 -170q153 -150 153 -415q0 -374 -181.5 -597t-481.5 -223q-159 0 -281 72l-102 -149q-40 6 -51 39l102 149q-86 70 -130 181.5t-44 252.5zM209 528q0 -246 137 -374l705 1034 q-114 84 -279 84q-168 0 -297.5 -97.5t-197.5 -266t-68 -380.5zM395 115q104 -66 252 -66q176 0 305 95t195.5 263t66.5 388q0 223 -118 350z" />
<glyph unicode="&#xd9;" horiz-adv-x="1314" d="M164 367q0 60 14 149l139 799q21 6 41 6q22 0 37 -6l-139 -799q-14 -82 -14 -137q0 -151 84 -239.5t260 -88.5q110 0 192.5 33.5t135 98t83.5 143.5t50 186l141 803q18 6 39 6q22 0 37 -6l-144 -811q-21 -120 -60 -212.5t-103 -165.5t-162 -112t-226 -39 q-200 0 -302.5 104t-102.5 288zM641 1585q12 47 49 70l287 -211q-8 -27 -27 -43z" />
<glyph unicode="&#xda;" horiz-adv-x="1314" d="M164 367q0 60 14 149l139 799q21 6 41 6q22 0 37 -6l-139 -799q-14 -82 -14 -137q0 -151 84 -239.5t260 -88.5q110 0 192.5 33.5t135 98t83.5 143.5t50 186l141 803q18 6 39 6q22 0 37 -6l-144 -811q-21 -120 -60 -212.5t-103 -165.5t-162 -112t-226 -39 q-200 0 -302.5 104t-102.5 288zM625 1442l356 207q29 -18 35 -68l-371 -180q-17 15 -20 41z" />
<glyph unicode="&#xdb;" horiz-adv-x="1314" d="M164 367q0 60 14 149l139 799q21 6 41 6q22 0 37 -6l-139 -799q-14 -82 -14 -137q0 -151 84 -239.5t260 -88.5q110 0 192.5 33.5t135 98t83.5 143.5t50 186l141 803q18 6 39 6q22 0 37 -6l-144 -811q-21 -120 -60 -212.5t-103 -165.5t-162 -112t-226 -39 q-200 0 -302.5 104t-102.5 288zM549 1425l258 217q34 6 61 0l185 -217q-9 -20 -37 -39l-187 191l-256 -191q-21 12 -24 39z" />
<glyph unicode="&#xdc;" horiz-adv-x="1314" d="M164 367q0 60 14 149l139 799q21 6 41 6q22 0 37 -6l-139 -799q-14 -82 -14 -137q0 -151 84 -239.5t260 -88.5q110 0 192.5 33.5t135 98t83.5 143.5t50 186l141 803q18 6 39 6q22 0 37 -6l-144 -811q-21 -120 -60 -212.5t-103 -165.5t-162 -112t-226 -39 q-200 0 -302.5 104t-102.5 288zM557 1538q0 26 20 46t46 20q27 0 47 -20t20 -46q0 -28 -19.5 -46.5t-47.5 -18.5q-27 0 -46.5 19t-19.5 46zM950 1538q0 26 20 46t46 20q28 0 47.5 -20t19.5 -46q0 -28 -19.5 -46.5t-47.5 -18.5q-27 0 -46.5 19t-19.5 46z" />
<glyph unicode="&#xdd;" d="M166 1315q32 8 53 8t27 -2l299 -674l10 -29l18 29l523 674q10 2 34 2q22 0 50 -8l-598 -770l-97 -545q-18 -6 -39 -6t-36 6l96 549zM500 1442l356 207q29 -18 35 -68l-371 -180q-17 15 -20 41z" />
<glyph unicode="&#xde;" horiz-adv-x="1054" d="M102 0l232 1317q18 6 41 6q22 0 37 -6l-47 -264q109 28 229 28q198 0 300.5 -92.5t102.5 -253.5q0 -205 -141.5 -337t-384.5 -132q-140 0 -242 17l-49 -283q-18 -6 -41 -6q-22 0 -37 6zM244 358q90 -20 237 -20q215 0 324.5 106.5t109.5 276.5q0 134 -83 211.5t-250 77.5 q-123 0 -230 -29z" />
<glyph unicode="&#xdf;" d="M74 0l178 1006q32 188 155 295.5t302 107.5q138 0 223.5 -70t85.5 -180q0 -69 -23.5 -121.5t-60.5 -84t-82 -55.5t-90 -43.5t-82 -41t-60.5 -55.5t-23.5 -80q0 -36 20 -66t51.5 -52t70 -44t77 -47.5t70 -55.5t51.5 -75t20 -100q0 -111 -88 -183.5t-229 -72.5 q-96 0 -165.5 31t-106.5 73q10 38 49 57q41 -43 93 -68.5t136 -25.5q108 0 171 52t63 128q0 46 -20 84t-52 64.5t-70.5 50.5t-77.5 47.5t-71 49.5t-52 63t-20 82q0 58 23.5 101.5t60.5 70t82 48l90 43t82 48t60.5 69.5t23.5 101q0 82 -60 134t-180 52q-154 0 -249.5 -88.5 t-120.5 -242.5l-178 -1006q-15 -6 -39 -6q-22 0 -37 6z" />
<glyph unicode="&#xe0;" horiz-adv-x="1069" d="M80 344q0 146 49 269t130.5 203t185 124.5t214.5 44.5q192 0 306 -82l-160 -907q-36 -6 -72 0l27 182v4q-75 -100 -169.5 -151t-195.5 -51q-64 0 -119.5 21.5t-100 64.5t-70 114.5t-25.5 163.5zM162 354q0 -144 67.5 -223.5t182.5 -79.5q99 0 198.5 67t173.5 193l97 547 q-75 55 -234 55q-93 0 -179.5 -39t-155 -108.5t-109.5 -177t-41 -234.5zM520 1325q19 47 60 61l237 -260q-8 -24 -33 -39z" />
<glyph unicode="&#xe1;" horiz-adv-x="1069" d="M80 344q0 146 49 269t130.5 203t185 124.5t214.5 44.5q192 0 306 -82l-160 -907q-36 -6 -72 0l27 182v4q-75 -100 -169.5 -151t-195.5 -51q-64 0 -119.5 21.5t-100 64.5t-70 114.5t-25.5 163.5zM162 354q0 -144 67.5 -223.5t182.5 -79.5q99 0 198.5 67t173.5 193l97 547 q-75 55 -234 55q-93 0 -179.5 -39t-155 -108.5t-109.5 -177t-41 -234.5zM494 1128l319 261q40 -21 49 -68l-340 -236q-19 15 -28 43z" />
<glyph unicode="&#xe2;" horiz-adv-x="1069" d="M80 344q0 146 49 269t130.5 203t185 124.5t214.5 44.5q192 0 306 -82l-160 -907q-36 -6 -72 0l27 182v4q-75 -100 -169.5 -151t-195.5 -51q-64 0 -119.5 21.5t-100 64.5t-70 114.5t-25.5 163.5zM162 354q0 -144 67.5 -223.5t182.5 -79.5q99 0 198.5 67t173.5 193l97 547 q-75 55 -234 55q-93 0 -179.5 -39t-155 -108.5t-109.5 -177t-41 -234.5zM403 1130l269 259q28 9 53 0l182 -263q-14 -24 -43 -34l-172 227l-256 -229q-27 12 -33 40z" />
<glyph unicode="&#xe3;" horiz-adv-x="1069" d="M80 344q0 146 49 269t130.5 203t185 124.5t214.5 44.5q192 0 306 -82l-160 -907q-36 -6 -72 0l27 182v4q-75 -100 -169.5 -151t-195.5 -51q-64 0 -119.5 21.5t-100 64.5t-70 114.5t-25.5 163.5zM162 354q0 -144 67.5 -223.5t182.5 -79.5q99 0 198.5 67t173.5 193l97 547 q-75 55 -234 55q-93 0 -179.5 -39t-155 -108.5t-109.5 -177t-41 -234.5zM369 1182q40 69 85.5 102t110.5 33q45 0 91 -22t87.5 -44t75.5 -22q71 0 109 90q40 0 57 -21q-24 -65 -69.5 -101t-98.5 -36q-46 0 -90.5 22t-85 44t-76.5 22q-44 0 -76.5 -23.5t-66.5 -70.5 q-36 4 -53 27z" />
<glyph unicode="&#xe4;" horiz-adv-x="1069" d="M80 344q0 146 49 269t130.5 203t185 124.5t214.5 44.5q192 0 306 -82l-160 -907q-36 -6 -72 0l27 182v4q-75 -100 -169.5 -151t-195.5 -51q-64 0 -119.5 21.5t-100 64.5t-70 114.5t-25.5 163.5zM162 354q0 -144 67.5 -223.5t182.5 -79.5q99 0 198.5 67t173.5 193l97 547 q-75 55 -234 55q-93 0 -179.5 -39t-155 -108.5t-109.5 -177t-41 -234.5zM410 1235q0 26 20.5 45.5t46.5 19.5q27 0 46.5 -19t19.5 -46q0 -28 -19 -48t-47 -20q-27 0 -47 20.5t-20 47.5zM805 1235q0 26 20.5 45.5t46.5 19.5q28 0 47 -19t19 -46q0 -28 -19 -48t-47 -20 q-26 0 -46.5 20.5t-20.5 47.5z" />
<glyph unicode="&#xe5;" horiz-adv-x="1069" d="M80 344q0 146 49 269t130.5 203t185 124.5t214.5 44.5q192 0 306 -82l-160 -907q-36 -6 -72 0l27 182v4q-75 -100 -169.5 -151t-195.5 -51q-64 0 -119.5 21.5t-100 64.5t-70 114.5t-25.5 163.5zM162 354q0 -144 67.5 -223.5t182.5 -79.5q99 0 198.5 67t173.5 193l97 547 q-75 55 -234 55q-93 0 -179.5 -39t-155 -108.5t-109.5 -177t-41 -234.5zM498 1206q0 90 57 148.5t135 58.5q75 0 116.5 -44.5t41.5 -115.5q0 -92 -56 -148t-137 -56q-74 0 -115.5 43.5t-41.5 113.5zM557 1214q0 -47 26.5 -76.5t78.5 -29.5q59 0 92.5 36.5t33.5 102.5 q0 107 -104 107q-52 0 -89.5 -40t-37.5 -100z" />
<glyph unicode="&#xe6;" horiz-adv-x="1615" d="M78 311q0 136 41.5 260t112 215t171 145t213.5 54q192 0 314 -151q147 151 332 151q128 0 203 -66t75 -182q0 -160 -120.5 -240.5t-334.5 -80.5q-117 0 -245 28q0 -6 -3 -37.5t-3 -50.5q6 -155 80.5 -231t203.5 -76q51 0 94.5 9.5t80 29t56.5 33t50 37.5q34 -13 43 -56 q-75 -57 -151 -89.5t-183 -32.5q-155 0 -244 84t-98 241q-66 -149 -180 -237t-244 -88q-54 0 -99.5 18t-83.5 55.5t-59.5 103.5t-21.5 154zM158 322q0 -133 55 -202t145 -69q128 0 251.5 130t158.5 300q37 172 113 289q-95 143 -275 143q-129 0 -233 -82.5t-159.5 -217 t-55.5 -291.5zM848 510q123 -27 235 -27q179 0 278 64t99 182q0 82 -56 134t-155 52q-42 0 -84 -11t-90.5 -39.5t-89.5 -72.5t-78 -116.5t-59 -165.5z" />
<glyph unicode="&#xe7;" horiz-adv-x="944" d="M90 387q0 274 145.5 436t366.5 162q191 0 289 -102q-17 -39 -49 -56q-54 46 -110.5 67t-139.5 21q-99 0 -180 -42t-133.5 -113.5t-80.5 -165t-28 -197.5q0 -156 82 -251t237 -95q148 0 271 101q33 -20 39 -54q-134 -115 -310 -118l-30 -72q71 -15 106 -42.5t35 -82.5 q0 -61 -38 -101t-87.5 -54.5t-107.5 -14.5q-86 0 -111 18q7 34 27 54q37 -15 90 -15q65 0 110 26t45 77q0 44 -32.5 61.5t-118.5 30.5l53 117q-158 14 -249 120.5t-91 284.5z" />
<glyph unicode="&#xe8;" horiz-adv-x="978" d="M88 381q0 139 42 254.5t113 191t163.5 117t195.5 41.5q137 0 217 -69.5t80 -176.5q0 -145 -120.5 -234t-356.5 -89q-141 0 -254 41q-2 -20 -2 -66q0 -164 84.5 -253t232.5 -89q70 0 130 20.5t91 42t66 54.5q35 -14 41 -53q-140 -133 -338 -133q-173 0 -279 102.5 t-106 298.5zM178 524q110 -39 252 -39q194 0 291.5 68.5t97.5 177.5q0 78 -59 131t-164 53q-151 0 -267 -105t-151 -286zM459 1325q20 47 59 61l238 -260q-8 -24 -33 -39z" />
<glyph unicode="&#xe9;" horiz-adv-x="978" d="M88 381q0 139 42 254.5t113 191t163.5 117t195.5 41.5q137 0 217 -69.5t80 -176.5q0 -145 -120.5 -234t-356.5 -89q-141 0 -254 41q-2 -20 -2 -66q0 -164 84.5 -253t232.5 -89q70 0 130 20.5t91 42t66 54.5q35 -14 41 -53q-140 -133 -338 -133q-173 0 -279 102.5 t-106 298.5zM178 524q110 -39 252 -39q194 0 291.5 68.5t97.5 177.5q0 78 -59 131t-164 53q-151 0 -267 -105t-151 -286zM432 1128l320 261q40 -21 49 -68l-340 -236q-21 16 -29 43z" />
<glyph unicode="&#xea;" horiz-adv-x="978" d="M88 381q0 139 42 254.5t113 191t163.5 117t195.5 41.5q137 0 217 -69.5t80 -176.5q0 -145 -120.5 -234t-356.5 -89q-141 0 -254 41q-2 -20 -2 -66q0 -164 84.5 -253t232.5 -89q70 0 130 20.5t91 42t66 54.5q35 -14 41 -53q-140 -133 -338 -133q-173 0 -279 102.5 t-106 298.5zM178 524q110 -39 252 -39q194 0 291.5 68.5t97.5 177.5q0 78 -59 131t-164 53q-151 0 -267 -105t-151 -286zM342 1130l268 259q29 10 54 0l182 -263q-14 -24 -43 -34l-172 227l-256 -229q-27 12 -33 40z" />
<glyph unicode="&#xeb;" horiz-adv-x="978" d="M88 381q0 139 42 254.5t113 191t163.5 117t195.5 41.5q137 0 217 -69.5t80 -176.5q0 -145 -120.5 -234t-356.5 -89q-141 0 -254 41q-2 -20 -2 -66q0 -164 84.5 -253t232.5 -89q70 0 130 20.5t91 42t66 54.5q35 -14 41 -53q-140 -133 -338 -133q-173 0 -279 102.5 t-106 298.5zM178 524q110 -39 252 -39q194 0 291.5 68.5t97.5 177.5q0 78 -59 131t-164 53q-151 0 -267 -105t-151 -286zM348 1235q0 26 20.5 45.5t47.5 19.5t46 -19t19 -46q0 -28 -19 -48t-46 -20t-47.5 20.5t-20.5 47.5zM743 1235q0 26 20.5 45.5t47.5 19.5t46.5 -19 t19.5 -46q0 -28 -19 -48t-47 -20q-27 0 -47.5 20.5t-20.5 47.5z" />
<glyph unicode="&#xec;" horiz-adv-x="428" d="M78 0l168 961q18 6 41 6q22 0 37 -6l-170 -961q-18 -6 -39 -6q-22 0 -37 6zM176 1325q19 47 60 61l237 -260q-8 -24 -33 -39z" />
<glyph unicode="&#xed;" horiz-adv-x="428" d="M78 0l168 961q18 6 41 6q22 0 37 -6l-170 -961q-18 -6 -39 -6q-22 0 -37 6zM150 1128l319 261q40 -21 49 -68l-340 -236q-19 15 -28 43z" />
<glyph unicode="&#xee;" horiz-adv-x="428" d="M70 1124l245 265q26 7 52 0l165 -265q-12 -22 -40 -30l-158 219l-234 -221q-24 9 -30 32zM78 0l168 961q18 6 41 6q22 0 37 -6l-170 -961q-18 -6 -39 -6q-22 0 -37 6z" />
<glyph unicode="&#xef;" horiz-adv-x="428" d="M78 0l168 961q18 6 41 6q22 0 37 -6l-170 -961q-18 -6 -39 -6q-22 0 -37 6zM98 1235q0 26 20 45.5t48 19.5q27 0 46 -19t19 -46q0 -28 -19 -48t-46 -20q-28 0 -48 20t-20 48zM412 1235q0 26 19.5 45.5t47.5 19.5q27 0 46.5 -19t19.5 -46q0 -28 -19 -48t-47 -20t-47.5 20 t-19.5 48z" />
<glyph unicode="&#xf0;" horiz-adv-x="1060" d="M84 358q0 120 38.5 220.5t103.5 167.5t150.5 104t180.5 37q182 0 287 -133q-50 246 -211 381l-180 -121q-12 6 -21.5 20t-9.5 29l162 111q-79 53 -174 88q7 50 39 73q117 -48 204 -114l187 125q12 -6 21.5 -19.5t10.5 -28.5l-174 -116q126 -118 180 -287.5t54 -398.5 q0 -146 -56.5 -262.5t-164.5 -185t-250 -68.5q-178 0 -277.5 102.5t-99.5 275.5zM162 373q0 -146 80.5 -235t228.5 -89q179 0 283 128t104 323q0 140 -83 227.5t-226 87.5q-168 0 -277.5 -122t-109.5 -320z" />
<glyph unicode="&#xf1;" horiz-adv-x="1091" d="M68 0l157 903q164 82 383 82q175 0 257.5 -76t82.5 -209q0 -43 -10 -98l-107 -602q-15 -6 -38 -6q-22 0 -37 6l104 586q8 41 8 92q0 235 -276 235q-90 0 -170.5 -16.5t-128.5 -38.5l-150 -858q-15 -6 -39 -6q-21 0 -36 6zM338 1182q40 69 86 102t111 33q45 0 91 -22 t87 -44t75 -22q71 0 109 90q39 0 57 -21q-24 -65 -69.5 -101t-98.5 -36q-46 0 -90.5 22t-84.5 44t-76 22q-44 0 -77 -23.5t-67 -70.5q-36 4 -53 27z" />
<glyph unicode="&#xf2;" d="M88 389q0 165 61 300.5t177 216.5t266 81q180 0 277.5 -112t97.5 -300q0 -165 -59 -299.5t-172 -215t-261 -80.5q-183 0 -285 111.5t-102 297.5zM168 403q0 -160 81 -257t236 -97q94 0 171.5 43t127.5 115t77.5 163.5t27.5 190.5q0 162 -77 258t-230 96q-99 0 -179.5 -44 t-130.5 -117t-77 -163.5t-27 -187.5zM469 1325q20 47 59 61l238 -260q-8 -24 -33 -39z" />
<glyph unicode="&#xf3;" d="M88 389q0 165 61 300.5t177 216.5t266 81q180 0 277.5 -112t97.5 -300q0 -165 -59 -299.5t-172 -215t-261 -80.5q-183 0 -285 111.5t-102 297.5zM168 403q0 -160 81 -257t236 -97q94 0 171.5 43t127.5 115t77.5 163.5t27.5 190.5q0 162 -77 258t-230 96q-99 0 -179.5 -44 t-130.5 -117t-77 -163.5t-27 -187.5zM440 1128l320 261q40 -21 49 -68l-340 -236q-21 16 -29 43z" />
<glyph unicode="&#xf4;" d="M88 389q0 165 61 300.5t177 216.5t266 81q180 0 277.5 -112t97.5 -300q0 -165 -59 -299.5t-172 -215t-261 -80.5q-183 0 -285 111.5t-102 297.5zM168 403q0 -160 81 -257t236 -97q94 0 171.5 43t127.5 115t77.5 163.5t27.5 190.5q0 162 -77 258t-230 96q-99 0 -179.5 -44 t-130.5 -117t-77 -163.5t-27 -187.5zM352 1130l269 259q28 9 53 0l182 -263q-14 -24 -43 -34l-172 227l-256 -229q-27 12 -33 40z" />
<glyph unicode="&#xf5;" d="M88 389q0 165 61 300.5t177 216.5t266 81q180 0 277.5 -112t97.5 -300q0 -165 -59 -299.5t-172 -215t-261 -80.5q-183 0 -285 111.5t-102 297.5zM168 403q0 -160 81 -257t236 -97q94 0 171.5 43t127.5 115t77.5 163.5t27.5 190.5q0 162 -77 258t-230 96q-99 0 -179.5 -44 t-130.5 -117t-77 -163.5t-27 -187.5zM315 1182q40 69 86 102t111 33q45 0 91 -22t87.5 -44t75.5 -22q70 0 108 90q40 0 58 -21q-24 -65 -69.5 -101t-98.5 -36q-46 0 -90.5 22t-85 44t-76.5 22q-44 0 -76.5 -23.5t-66.5 -70.5q-37 4 -54 27z" />
<glyph unicode="&#xf6;" d="M88 389q0 165 61 300.5t177 216.5t266 81q180 0 277.5 -112t97.5 -300q0 -165 -59 -299.5t-172 -215t-261 -80.5q-183 0 -285 111.5t-102 297.5zM168 403q0 -160 81 -257t236 -97q94 0 171.5 43t127.5 115t77.5 163.5t27.5 190.5q0 162 -77 258t-230 96q-99 0 -179.5 -44 t-130.5 -117t-77 -163.5t-27 -187.5zM356 1235q0 26 20.5 45.5t47.5 19.5t46 -19t19 -46q0 -28 -19 -48t-46 -20t-47.5 20.5t-20.5 47.5zM752 1235q0 26 20.5 45.5t46.5 19.5q27 0 46.5 -19t19.5 -46q0 -28 -19 -48t-47 -20q-27 0 -47 20.5t-20 47.5z" />
<glyph unicode="&#xf7;" horiz-adv-x="1042" d="M126 457q0 7 1 10q0 31 12 49h750v-20q0 -23 -12 -47h-750q-1 1 -1 8zM379 174q0 31 22.5 53.5t53.5 22.5q30 0 51.5 -22.5t21.5 -53.5q0 -32 -21 -54t-52 -22t-53.5 22t-22.5 54zM487 793q0 31 22.5 53t53.5 22t53.5 -22t22.5 -53t-22.5 -53.5t-53.5 -22.5t-53.5 22.5 t-22.5 53.5z" />
<glyph unicode="&#xf8;" d="M88 389q0 165 61 300.5t177 216.5t266 81q119 0 201 -49l108 168q35 -4 49 -31l-110 -170q127 -112 127 -330q0 -165 -59 -299.5t-172 -215t-261 -80.5q-117 0 -207 49l-112 -174q-37 3 -50 32l115 174q-133 114 -133 328zM168 403q0 -176 96 -272l486 741 q-67 43 -168 43q-99 0 -179.5 -44t-130.5 -117t-77 -163.5t-27 -187.5zM311 94q73 -45 174 -45q94 0 171.5 43t127.5 115t77.5 163.5t27.5 190.5q0 183 -94 277z" />
<glyph unicode="&#xf9;" horiz-adv-x="1079" d="M115 254q0 38 10 96l104 602q21 6 41 6q22 0 37 -6l-102 -579q-8 -49 -8 -101q0 -106 60 -164.5t200 -58.5q159 0 301 57l147 846q18 6 41 6q22 0 37 -6l-160 -895q-180 -82 -383 -82q-164 0 -244.5 73.5t-80.5 205.5zM489 1325q19 47 60 61l237 -260q-8 -25 -32 -39z " />
<glyph unicode="&#xfa;" horiz-adv-x="1079" d="M115 254q0 38 10 96l104 602q21 6 41 6q22 0 37 -6l-102 -579q-8 -49 -8 -101q0 -106 60 -164.5t200 -58.5q159 0 301 57l147 846q18 6 41 6q22 0 37 -6l-160 -895q-180 -82 -383 -82q-164 0 -244.5 73.5t-80.5 205.5zM463 1128l319 261q40 -21 49 -68l-339 -236 q-21 16 -29 43z" />
<glyph unicode="&#xfb;" horiz-adv-x="1079" d="M115 254q0 38 10 96l104 602q21 6 41 6q22 0 37 -6l-102 -579q-8 -49 -8 -101q0 -106 60 -164.5t200 -58.5q159 0 301 57l147 846q18 6 41 6q22 0 37 -6l-160 -895q-180 -82 -383 -82q-164 0 -244.5 73.5t-80.5 205.5zM373 1130l268 259q28 9 53 0l183 -263 q-14 -24 -43 -34l-172 227l-256 -229q-27 12 -33 40z" />
<glyph unicode="&#xfc;" horiz-adv-x="1079" d="M115 254q0 38 10 96l104 602q21 6 41 6q22 0 37 -6l-102 -579q-8 -49 -8 -101q0 -106 60 -164.5t200 -58.5q159 0 301 57l147 846q18 6 41 6q22 0 37 -6l-160 -895q-180 -82 -383 -82q-164 0 -244.5 73.5t-80.5 205.5zM379 1235q0 26 20.5 45.5t46.5 19.5q28 0 47 -19 t19 -46q0 -28 -19 -48t-47 -20q-26 0 -46.5 20.5t-20.5 47.5zM774 1235q0 26 20.5 45.5t47.5 19.5t46 -19t19 -46q0 -28 -19 -48t-46 -20t-47.5 20.5t-20.5 47.5z" />
<glyph unicode="&#xfd;" horiz-adv-x="1079" d="M18 -258q16 41 60 53q91 -117 287 -117q154 0 247.5 87.5t120.5 244.5l19 103q-153 -82 -322 -82q-182 0 -255 101t-42 274l96 546q18 6 39 6q22 0 37 -6l-92 -526q-15 -68 -9 -127t30 -102.5t81.5 -68t145.5 -24.5q157 0 305 89l133 759q18 6 41 6t35 -6l-166 -942 q-33 -190 -148 -295.5t-299 -105.5q-243 0 -344 133zM465 1128l319 261q41 -21 50 -68l-340 -236q-21 16 -29 43z" />
<glyph unicode="&#xfe;" horiz-adv-x="1083" d="M6 -383l305 1731q18 6 37 6q22 0 37 -6l-72 -408q126 45 244 45q197 0 306.5 -100.5t109.5 -284.5q0 -145 -43 -263.5t-118 -196t-175 -119t-215 -41.5q-159 0 -268 47l-72 -410q-18 -6 -41 -6q-20 0 -35 6zM168 111q105 -60 266 -60q199 0 329 143t130 394 q0 153 -89.5 238t-260.5 85q-132 0 -244 -51z" />
<glyph unicode="&#xff;" horiz-adv-x="1079" d="M18 -258q16 41 60 53q91 -117 287 -117q154 0 247.5 87.5t120.5 244.5l19 103q-153 -82 -322 -82q-182 0 -255 101t-42 274l96 546q18 6 39 6q22 0 37 -6l-92 -526q-15 -68 -9 -127t30 -102.5t81.5 -68t145.5 -24.5q157 0 305 89l133 759q18 6 41 6t35 -6l-166 -942 q-33 -190 -148 -295.5t-299 -105.5q-243 0 -344 133zM381 1235q0 26 20.5 45.5t47.5 19.5t46 -19t19 -46q0 -28 -19 -48t-46 -20t-47.5 20.5t-20.5 47.5zM776 1235q0 26 20.5 45.5t47.5 19.5t46 -19t19 -46q0 -28 -19 -48t-46 -20t-47.5 20.5t-20.5 47.5z" />
<glyph unicode="&#x100;" horiz-adv-x="1138" d="M-53 6l712 1309q12 4 39 4q25 0 37 -4l271 -1309q-21 -12 -54 -12q-14 0 -26 4l-84 420h-590l-227 -420q-8 -2 -29 -2q-29 0 -49 10zM289 487h538l-133 662l-12 76l-37 -78zM469 1485q-9 21 12 63h496q4 -32 -10 -63h-498z" />
<glyph unicode="&#x101;" horiz-adv-x="1069" d="M80 344q0 146 49 269t130.5 203t185 124.5t214.5 44.5q192 0 306 -82l-160 -907q-36 -6 -72 0l27 182v4q-75 -100 -169.5 -151t-195.5 -51q-64 0 -119.5 21.5t-100 64.5t-70 114.5t-25.5 163.5zM162 354q0 -144 67.5 -223.5t182.5 -79.5q99 0 198.5 67t173.5 193l97 547 q-75 55 -234 55q-93 0 -179.5 -39t-155 -108.5t-109.5 -177t-41 -234.5zM418 1190q0 19 12 49h492l2 -16q0 -27 -15 -49h-489q-2 4 -2 16z" />
<glyph unicode="&#x102;" horiz-adv-x="1138" d="M-53 6l712 1309q12 4 39 4q25 0 37 -4l271 -1309q-21 -12 -54 -12q-14 0 -26 4l-84 420h-590l-227 -420q-8 -2 -29 -2q-29 0 -49 10zM289 487h538l-133 662l-12 76l-37 -78zM492 1649q26 9 59 6q3 -81 49 -126.5t117 -45.5q75 0 133.5 44.5t85.5 127.5q34 0 53 -8 q-27 -104 -101 -167t-177 -63q-101 0 -162 63t-57 169z" />
<glyph unicode="&#x103;" horiz-adv-x="1069" d="M80 344q0 146 49 269t130.5 203t185 124.5t214.5 44.5q192 0 306 -82l-160 -907q-36 -6 -72 0l27 182v4q-75 -100 -169.5 -151t-195.5 -51q-64 0 -119.5 21.5t-100 64.5t-70 114.5t-25.5 163.5zM162 354q0 -144 67.5 -223.5t182.5 -79.5q99 0 198.5 67t173.5 193l97 547 q-75 55 -234 55q-93 0 -179.5 -39t-155 -108.5t-109.5 -177t-41 -234.5zM428 1350q25 9 59 6q-1 -92 44 -139.5t118 -47.5q76 0 138 49t87 138q33 0 54 -8q-27 -115 -101.5 -179.5t-187.5 -64.5q-100 0 -160.5 66t-50.5 180z" />
<glyph unicode="&#x104;" horiz-adv-x="1138" d="M-53 6l712 1309q12 4 39 4q25 0 37 -4l271 -1309q-75 -52 -117.5 -114t-42.5 -117q0 -36 23 -55t55 -19q52 0 106 39q28 -14 25 -49q-37 -28 -72 -43t-84 -15q-62 0 -96.5 30.5t-34.5 88.5q0 120 156 246h2l-84 420h-590l-227 -420q-8 -2 -29 -2q-29 0 -49 10zM289 487 h538l-133 662l-12 76l-37 -78z" />
<glyph unicode="&#x105;" horiz-adv-x="1069" d="M80 344q0 146 49 269t130.5 203t185 124.5t214.5 44.5q192 0 306 -82l-160 -907q-162 -115 -162 -221q0 -37 23 -55.5t57 -18.5q54 0 108 39q28 -19 25 -47q-79 -60 -158 -60q-62 0 -96.5 30.5t-34.5 88.5q0 117 160 244h6l27 182v4q-75 -100 -169.5 -151t-195.5 -51 q-64 0 -119.5 21.5t-100 64.5t-70 114.5t-25.5 163.5zM162 354q0 -144 67.5 -223.5t182.5 -79.5q99 0 198.5 67t173.5 193l97 547q-75 55 -234 55q-93 0 -179.5 -39t-155 -108.5t-109.5 -177t-41 -234.5z" />
<glyph unicode="&#x106;" horiz-adv-x="1189" d="M125 522q0 177 53 330t146 260.5t224 169t283 61.5q242 0 379 -137q-17 -40 -53 -57q-126 123 -338 123q-180 0 -320 -96t-216 -264.5t-76 -381.5q0 -223 115 -352t325 -129q225 0 371 125q36 -9 39 -51q-171 -148 -422 -148q-243 0 -376.5 148.5t-133.5 398.5zM651 1442 l357 207q28 -17 34 -68l-370 -180q-18 16 -21 41z" />
<glyph unicode="&#x107;" horiz-adv-x="944" d="M90 387q0 274 145.5 436t366.5 162q191 0 289 -102q-17 -39 -49 -56q-54 46 -110.5 67t-139.5 21q-99 0 -180 -42t-133.5 -113.5t-80.5 -165t-28 -197.5q0 -156 82 -251t237 -95q148 0 271 101q33 -20 39 -54q-137 -118 -324 -118q-176 0 -280.5 108.5t-104.5 298.5z M455 1128l319 261q40 -21 49 -68l-340 -236q-19 15 -28 43z" />
<glyph unicode="&#x10a;" horiz-adv-x="1189" d="M125 522q0 177 53 330t146 260.5t224 169t283 61.5q242 0 379 -137q-17 -40 -53 -57q-126 123 -338 123q-180 0 -320 -96t-216 -264.5t-76 -381.5q0 -223 115 -352t325 -129q225 0 371 125q36 -9 39 -51q-171 -148 -422 -148q-243 0 -376.5 148.5t-133.5 398.5zM776 1542 q0 29 21 50.5t49 21.5q29 0 49 -21t20 -51q0 -29 -20 -49t-49 -20q-28 0 -49 20t-21 49z" />
<glyph unicode="&#x10b;" horiz-adv-x="944" d="M90 387q0 274 145.5 436t366.5 162q191 0 289 -102q-17 -39 -49 -56q-54 46 -110.5 67t-139.5 21q-99 0 -180 -42t-133.5 -113.5t-80.5 -165t-28 -197.5q0 -156 82 -251t237 -95q148 0 271 101q33 -20 39 -54q-137 -118 -324 -118q-176 0 -280.5 108.5t-104.5 298.5z M567 1249q0 28 21 49t49 21q29 0 49.5 -21t20.5 -49q0 -29 -20.5 -50t-49.5 -21q-28 0 -49 21t-21 50z" />
<glyph unicode="&#x10c;" horiz-adv-x="1189" d="M125 522q0 177 53 330t146 260.5t224 169t283 61.5q242 0 379 -137q-17 -40 -53 -57q-126 123 -338 123q-180 0 -320 -96t-216 -264.5t-76 -381.5q0 -223 115 -352t325 -129q225 0 371 125q36 -9 39 -51q-171 -148 -422 -148q-243 0 -376.5 148.5t-133.5 398.5zM602 1608 q10 23 37 39l186 -191l254 191q24 -12 27 -39l-258 -217q-35 -6 -62 0z" />
<glyph unicode="&#x10d;" horiz-adv-x="944" d="M90 387q0 274 145.5 436t366.5 162q191 0 289 -102q-17 -39 -49 -56q-54 46 -110.5 67t-139.5 21q-99 0 -180 -42t-133.5 -113.5t-80.5 -165t-28 -197.5q0 -156 82 -251t237 -95q148 0 271 101q33 -20 39 -54q-137 -118 -324 -118q-176 0 -280.5 108.5t-104.5 298.5z M401 1350q13 26 39 34l178 -217l250 222q27 -12 33 -41l-262 -252q-27 -6 -55 0z" />
<glyph unicode="&#x10e;" horiz-adv-x="1331" d="M102 2l230 1305q162 26 307 26q290 0 446 -147.5t156 -411.5q0 -125 -31.5 -240t-97.5 -216t-160 -175.5t-227 -117.5t-291 -43q-196 0 -332 20zM190 70q119 -17 259 -17q174 0 312 58t223.5 157.5t130 226t44.5 269.5q0 237 -136 366.5t-396 129.5q-120 0 -228 -15z M506 1608q10 23 37 39l186 -191l254 191q24 -12 27 -39l-258 -217q-35 -6 -62 0z" />
<glyph unicode="&#x10f;" horiz-adv-x="1087" d="M84 381q0 268 164 436t414 168q143 0 239 -41l72 404q18 6 39 6q22 0 37 -6l-228 -1293q-134 -75 -321 -75q-193 0 -304.5 105.5t-111.5 295.5zM164 393q0 -161 91.5 -251.5t250.5 -90.5q141 0 246 45l137 772q-95 45 -234 45q-217 0 -354 -145t-137 -375zM1169 1108 q37 53 60.5 131t23.5 143q0 36 -4 60q17 10 45 10q22 0 35 -8l1 -14q1 -14 1 -23q0 -91 -41.5 -181t-91.5 -139q-26 3 -29 21z" />
<glyph unicode="&#x110;" horiz-adv-x="1331" d="M37 627q-4 36 10 55h174l111 625q162 26 307 26q290 0 446 -147.5t156 -411.5q0 -125 -31.5 -240t-97.5 -216t-160 -175.5t-227 -117.5t-291 -43q-196 0 -332 20l111 625h-176zM190 70q119 -17 259 -17q174 0 312 58t223.5 157.5t130 226t44.5 269.5q0 237 -136 366.5 t-396 129.5q-120 0 -228 -15l-100 -563h190q3 -31 -10 -55h-190z" />
<glyph unicode="&#x111;" horiz-adv-x="1077" d="M84 381q0 268 164 436t414 168q143 0 239 -41l37 207h-188q-4 36 10 55h188l25 142q18 6 39 6q22 0 37 -6l-25 -142h178q3 -31 -10 -55h-178l-193 -1096q-134 -75 -321 -75q-193 0 -304.5 105.5t-111.5 295.5zM164 393q0 -161 91.5 -251.5t250.5 -90.5q141 0 246 45 l137 772q-95 45 -234 45q-217 0 -354 -145t-137 -375z" />
<glyph unicode="&#x112;" horiz-adv-x="1050" d="M100 0l234 1315h731q5 -37 -12 -72h-658l-92 -522h596q5 -35 -12 -72h-596l-103 -577h684q5 -38 -14 -72h-758zM481 1485q-9 20 13 63h495q4 -32 -10 -63h-498z" />
<glyph unicode="&#x113;" horiz-adv-x="978" d="M88 381q0 139 42 254.5t113 191t163.5 117t195.5 41.5q137 0 217 -69.5t80 -176.5q0 -145 -120.5 -234t-356.5 -89q-141 0 -254 41q-2 -20 -2 -66q0 -164 84.5 -253t232.5 -89q70 0 130 20.5t91 42t66 54.5q35 -14 41 -53q-140 -133 -338 -133q-173 0 -279 102.5 t-106 298.5zM178 524q110 -39 252 -39q194 0 291.5 68.5t97.5 177.5q0 78 -59 131t-164 53q-151 0 -267 -105t-151 -286zM356 1190q0 16 13 49h491l2 -16q0 -28 -14 -49h-490q-2 4 -2 16z" />
<glyph unicode="&#x116;" horiz-adv-x="1050" d="M100 0l234 1315h731q5 -37 -12 -72h-658l-92 -522h596q5 -35 -12 -72h-596l-103 -577h684q5 -38 -14 -72h-758zM666 1542q0 29 20.5 50.5t48.5 21.5q29 0 49.5 -21.5t20.5 -50.5t-20.5 -49t-49.5 -20q-28 0 -48.5 20t-20.5 49z" />
<glyph unicode="&#x117;" horiz-adv-x="978" d="M88 381q0 139 42 254.5t113 191t163.5 117t195.5 41.5q137 0 217 -69.5t80 -176.5q0 -145 -120.5 -234t-356.5 -89q-141 0 -254 41q-2 -20 -2 -66q0 -164 84.5 -253t232.5 -89q70 0 130 20.5t91 42t66 54.5q35 -14 41 -53q-140 -133 -338 -133q-173 0 -279 102.5 t-106 298.5zM178 524q110 -39 252 -39q194 0 291.5 68.5t97.5 177.5q0 78 -59 131t-164 53q-151 0 -267 -105t-151 -286zM545 1249q0 28 20.5 49t48.5 21q29 0 49.5 -21t20.5 -49q0 -29 -20.5 -50t-49.5 -21q-28 0 -48.5 21t-20.5 50z" />
<glyph unicode="&#x118;" horiz-adv-x="1050" d="M100 0l234 1315h731q5 -37 -12 -72h-658l-92 -522h596q5 -35 -12 -72h-596l-103 -577h684q5 -38 -14 -72q-153 -125 -153 -225q0 -37 22 -55.5t53 -18.5q58 0 109 37q13 -4 20.5 -18t5.5 -29q-73 -58 -149 -58q-64 0 -100.5 31t-36.5 90q0 65 46 129t122 117h-697z" />
<glyph unicode="&#x119;" horiz-adv-x="978" d="M88 381q0 139 42 254.5t113 191t163.5 117t195.5 41.5q137 0 217 -69.5t80 -176.5q0 -145 -120.5 -234t-356.5 -89q-141 0 -254 41q-2 -20 -2 -66q0 -164 84.5 -253t232.5 -89q70 0 130 20.5t91 42t66 54.5q35 -14 41 -53q-59 -55 -106 -78q-199 -140 -199 -256 q0 -38 23.5 -58t56.5 -20q46 0 104 37q11 -5 20 -18t9 -27q-71 -60 -156 -60q-61 0 -98 33.5t-37 93.5q0 110 143 228q-41 -8 -98 -8q-173 0 -279 102.5t-106 298.5zM178 524q110 -39 252 -39q194 0 291.5 68.5t97.5 177.5q0 78 -59 131t-164 53q-151 0 -267 -105t-151 -286 z" />
<glyph unicode="&#x11a;" horiz-adv-x="1050" d="M100 0l234 1315h731q5 -37 -12 -72h-658l-92 -522h596q5 -35 -12 -72h-596l-103 -577h684q5 -38 -14 -72h-758zM494 1608q11 24 36 39l187 -191l254 191q23 -11 26 -39l-258 -217q-34 -6 -61 0z" />
<glyph unicode="&#x11b;" horiz-adv-x="978" d="M88 381q0 139 42 254.5t113 191t163.5 117t195.5 41.5q137 0 217 -69.5t80 -176.5q0 -145 -120.5 -234t-356.5 -89q-141 0 -254 41q-2 -20 -2 -66q0 -164 84.5 -253t232.5 -89q70 0 130 20.5t91 42t66 54.5q35 -14 41 -53q-140 -133 -338 -133q-173 0 -279 102.5 t-106 298.5zM178 524q110 -39 252 -39q194 0 291.5 68.5t97.5 177.5q0 78 -59 131t-164 53q-151 0 -267 -105t-151 -286zM379 1350q13 26 39 34l178 -217l250 222q27 -12 33 -41l-263 -252q-28 -6 -55 0z" />
<glyph unicode="&#x11e;" horiz-adv-x="1271" d="M127 520q0 240 92 428t256.5 291.5t374.5 103.5q243 0 377 -151q-14 -37 -53 -59q-64 69 -144 103t-196 34q-186 0 -329 -94t-220.5 -263t-77.5 -387q0 -221 111.5 -349t334.5 -128q192 0 336 72l78 434h-330q-6 30 13 72h405l-98 -549q-94 -49 -191 -76t-227 -27 q-251 0 -381.5 146.5t-130.5 398.5zM608 1649q27 9 60 6q3 -81 49 -126.5t117 -45.5q75 0 133.5 44.5t85.5 127.5q34 0 53 -8q-27 -104 -101.5 -167t-177.5 -63q-101 0 -162 63t-57 169z" />
<glyph unicode="&#x11f;" horiz-adv-x="1073" d="M-12 -238q17 38 59 54q104 -138 320 -138q140 0 240 90.5t126 241.5l15 86q-138 -86 -279 -86q-174 0 -277.5 99.5t-103.5 277.5q0 142 47 257.5t126 188.5t179 112.5t209 39.5q207 0 318 -82l-156 -893q-34 -187 -152 -294t-297 -107q-137 0 -225 41t-149 112zM168 397 q0 -150 84.5 -233.5t234.5 -83.5q137 0 275 94l121 684q-83 55 -244 55q-95 0 -179.5 -34.5t-149.5 -98.5t-103.5 -163t-38.5 -220zM428 1350q25 9 59 6q-1 -92 44 -139.5t118 -47.5q76 0 138 49t87 138q33 0 54 -8q-27 -115 -101.5 -179.5t-187.5 -64.5q-100 0 -160.5 66 t-50.5 180z" />
<glyph unicode="&#x120;" horiz-adv-x="1271" d="M127 520q0 240 92 428t256.5 291.5t374.5 103.5q243 0 377 -151q-14 -37 -53 -59q-64 69 -144 103t-196 34q-186 0 -329 -94t-220.5 -263t-77.5 -387q0 -221 111.5 -349t334.5 -128q192 0 336 72l78 434h-330q-6 30 13 72h405l-98 -549q-94 -49 -191 -76t-227 -27 q-251 0 -381.5 146.5t-130.5 398.5zM770 1542q0 29 21 50.5t49 21.5q29 0 49 -21t20 -51q0 -29 -20 -49t-49 -20q-28 0 -49 20t-21 49z" />
<glyph unicode="&#x121;" horiz-adv-x="1073" d="M-12 -238q17 38 59 54q104 -138 320 -138q140 0 240 90.5t126 241.5l15 86q-138 -86 -279 -86q-174 0 -277.5 99.5t-103.5 277.5q0 142 47 257.5t126 188.5t179 112.5t209 39.5q207 0 318 -82l-156 -893q-34 -187 -152 -294t-297 -107q-137 0 -225 41t-149 112zM168 397 q0 -150 84.5 -233.5t234.5 -83.5q137 0 275 94l121 684q-83 55 -244 55q-95 0 -179.5 -34.5t-149.5 -98.5t-103.5 -163t-38.5 -220zM606 1249q0 28 21 49t49 21q29 0 49 -21t20 -49q0 -29 -20 -50t-49 -21q-28 0 -49 21t-21 50z" />
<glyph unicode="&#x122;" horiz-adv-x="1271" d="M127 520q0 240 92 428t256.5 291.5t374.5 103.5q243 0 377 -151q-14 -37 -53 -59q-64 69 -144 103t-196 34q-186 0 -329 -94t-220.5 -263t-77.5 -387q0 -221 111.5 -349t334.5 -128q192 0 336 72l78 434h-330q-6 30 13 72h405l-98 -549q-94 -49 -191 -76t-227 -27 q-251 0 -381.5 146.5t-130.5 398.5zM512 -401q45 47 70.5 116t25.5 129q0 48 -4 66q20 8 43 8q20 0 35 -6q0 -2 1 -17t1 -24q0 -92 -43 -172t-102 -127q-20 7 -27 27z" />
<glyph unicode="&#x123;" horiz-adv-x="1073" d="M-12 -238q17 38 59 54q104 -138 320 -138q140 0 240 90.5t126 241.5l15 86q-138 -86 -279 -86q-174 0 -277.5 99.5t-103.5 277.5q0 142 47 257.5t126 188.5t179 112.5t209 39.5q207 0 318 -82l-156 -893q-34 -187 -152 -294t-297 -107q-137 0 -225 41t-149 112zM168 397 q0 -150 84.5 -233.5t234.5 -83.5q137 0 275 94l121 684q-83 55 -244 55q-95 0 -179.5 -34.5t-149.5 -98.5t-103.5 -163t-38.5 -220zM584 1090q0 92 43 172t102 127q20 -7 27 -27q-45 -47 -71 -116.5t-26 -129.5q0 -42 5 -65q-22 -9 -43 -9q-17 0 -35 7q0 2 -1 17t-1 24z" />
<glyph unicode="&#x126;" horiz-adv-x="1345" d="M100 0l166 930h-110v18q0 19 12 43h108l58 324q15 6 37 6q24 0 39 -6l-58 -324h793l57 324q18 6 39 6q22 0 37 -6l-57 -324h120q2 -6 2 -18q0 -19 -12 -43h-121l-163 -930q-18 -6 -37 -6q-23 0 -41 6l114 643h-792l-113 -643q-18 -6 -41 -6q-19 0 -37 6zM303 713h793 l39 217h-793z" />
<glyph unicode="&#x127;" horiz-adv-x="1097" d="M74 0l202 1151h-163q-4 36 10 55h164l24 140q18 6 39 6q22 0 37 -6l-25 -140h203q3 -31 -10 -55h-203l-39 -221q133 55 301 55q105 0 178.5 -29t109.5 -80.5t48 -121.5t-6 -152l-106 -602q-15 -6 -39 -6q-22 0 -37 6l104 586q15 69 6 128.5t-37 104t-88 69.5t-147 25 q-90 0 -170.5 -16.5t-128.5 -38.5l-151 -858q-15 -6 -39 -6q-22 0 -37 6z" />
<glyph unicode="&#x128;" horiz-adv-x="477" d="M102 0l232 1315q18 6 39 6q22 0 37 -6l-232 -1315q-18 -6 -39 -6q-22 0 -37 6zM127 1466q27 65 74 101.5t98 36.5q38 0 69.5 -14.5t49.5 -32t43.5 -32t52.5 -14.5q36 0 68 25.5t53 69.5q34 0 55 -21q-29 -66 -76.5 -102.5t-99.5 -36.5q-36 0 -66.5 14.5t-49 31.5 t-45 31.5t-54.5 14.5q-36 0 -67 -25.5t-50 -68.5q-40 0 -55 22z" />
<glyph unicode="&#x129;" horiz-adv-x="428" d="M78 0l168 961q18 6 41 6q22 0 37 -6l-170 -961q-18 -6 -39 -6q-22 0 -37 6zM90 1180q23 64 64.5 100.5t85.5 36.5q32 0 65 -21t63 -42t54 -21q60 0 90 86q36 0 57 -21q-21 -64 -61 -100.5t-84 -36.5q-40 0 -94 42t-86 42q-63 0 -97 -86q-36 0 -57 21z" />
<glyph unicode="&#x12a;" horiz-adv-x="477" d="M102 0l232 1315q18 6 39 6q22 0 37 -6l-232 -1315q-18 -6 -39 -6q-22 0 -37 6zM205 1485q-5 19 8 63h379q7 -30 -8 -63h-379z" />
<glyph unicode="&#x12b;" horiz-adv-x="428" d="M78 0l168 961q18 6 41 6q22 0 37 -6l-170 -961q-18 -6 -39 -6q-22 0 -37 6zM115 1190q0 24 10 49h393v-16q0 -29 -10 -49h-391q-2 4 -2 16z" />
<glyph unicode="&#x12e;" horiz-adv-x="477" d="M-55 -250q0 124 164 248q-1 0 -3.5 1t-3.5 1l232 1315q18 6 39 6q22 0 37 -6l-232 -1315q-158 -123 -158 -225q0 -37 22.5 -55.5t55.5 -18.5q57 0 111 39q27 -18 27 -47q-83 -60 -160 -60q-61 0 -96 30.5t-35 86.5z" />
<glyph unicode="&#x12f;" horiz-adv-x="428" d="M-86 -248q0 120 162 248h2l168 961q18 6 41 6q22 0 37 -6l-170 -961q-2 0 -4 -2q-160 -116 -160 -223q0 -37 23 -55.5t57 -18.5q54 0 108 39q27 -18 27 -47q-83 -60 -160 -60q-62 0 -96.5 30.5t-34.5 88.5zM260 1249q0 28 21.5 49t50.5 21t49 -21t20 -49q0 -29 -20 -50 t-49 -21t-50.5 21t-21.5 50z" />
<glyph unicode="&#x130;" horiz-adv-x="477" d="M102 0l232 1315q18 6 39 6q22 0 37 -6l-232 -1315q-18 -6 -39 -6q-22 0 -37 6zM338 1542q0 29 21 50.5t49 21.5q29 0 49 -21t20 -51q0 -29 -20 -49t-49 -20q-28 0 -49 20t-21 49z" />
<glyph unicode="&#x131;" horiz-adv-x="428" d="M78 0l168 961q18 6 41 6q22 0 37 -6l-170 -961q-18 -6 -39 -6q-22 0 -37 6z" />
<glyph unicode="&#x132;" horiz-adv-x="1015" d="M141 297l181 1018q18 6 38 6q22 0 37 -6l-180 -1018q-36 -6 -39 -6q-7 0 -37 6zM225 57q19 41 58 56q34 -37 69.5 -55.5t96.5 -18.5q211 0 258 262l180 1014q12 6 37 6q22 0 37 -6l-179 -1010q-58 -338 -348 -338q-69 0 -124 27.5t-85 62.5z" />
<glyph unicode="&#x133;" horiz-adv-x="884" d="M78 0l168 961q18 6 41 6q22 0 37 -6l-170 -961q-18 -6 -39 -6q-22 0 -37 6zM86 -326q14 43 47 60q72 -62 154 -62q84 0 149.5 61.5t87.5 192.5l176 1028q21 7 39 7q19 0 37 -7l-176 -1028q-29 -171 -113.5 -248t-201.5 -77q-120 0 -199 73zM262 1249q0 28 21 49t49 21 q29 0 49 -21t20 -49q0 -29 -20 -50t-49 -21q-28 0 -49 21t-21 50zM717 1243q0 29 20.5 50.5t48.5 21.5q29 0 49.5 -21.5t20.5 -50.5t-20.5 -49t-49.5 -20q-28 0 -48.5 20t-20.5 49z" />
<glyph unicode="&#x136;" horiz-adv-x="1107" d="M102 0l232 1315q18 6 39 6q22 0 37 -6l-121 -690q245 135 426.5 291t378.5 401q12 2 39 2q31 0 45 -4q-156 -202 -316.5 -356t-345.5 -275q173 -324 473 -680q-24 -8 -69 -8q-19 0 -27 2q-283 354 -442 643q-58 -36 -177 -100l-96 -541q-18 -6 -41 -6q-20 0 -35 6z M350 -401q45 47 70.5 116t25.5 129q0 48 -4 66q20 8 43 8q20 0 35 -6q0 -2 1 -17t1 -24q0 -92 -43 -172t-102 -127q-20 7 -27 27z" />
<glyph unicode="&#x137;" horiz-adv-x="995" d="M74 0l237 1346q18 6 39 6q22 0 37 -6l-72 -412q112 51 275 51q156 0 244 -68t88 -182q0 -71 -28.5 -130t-79 -100t-110 -69t-131.5 -47l246 -387q-32 -8 -53 -8q-27 0 -39 2l-229 364q-19 40 -17 72q179 45 270 114t91 179q0 90 -69 140t-198 50q-160 0 -274 -57 l-151 -858q-15 -6 -39 -6q-22 0 -37 6zM199 -401q45 47 70.5 116t25.5 129q0 48 -4 66q20 8 43 8q20 0 35 -6q0 -2 1 -17t1 -24q0 -92 -43.5 -171.5t-102.5 -127.5q-19 6 -26 27z" />
<glyph unicode="&#x138;" horiz-adv-x="917" d="M74 0l168 954q21 7 39 7q19 0 36 -7l-84 -481q157 69 326 206t262 277q6 2 39 2q23 0 43 -4q-83 -124 -209.5 -242t-265.5 -208l379 -502q-24 -6 -62 -6q-26 0 -36 2l-353 463q-64 -39 -137 -70l-69 -391q-18 -6 -39 -6q-22 0 -37 6z" />
<glyph unicode="&#x139;" horiz-adv-x="927" d="M100 -2l234 1317q18 6 39 6q19 0 37 -6l-222 -1247h629q9 -37 -12 -70h-705zM258 1442l356 207q29 -18 35 -68l-370 -180q-18 16 -21 41z" />
<glyph unicode="&#x13a;" horiz-adv-x="559" d="M100 147q0 23 6 50l203 1153q16 4 37 4q17 0 37 -4l-201 -1147q-4 -28 -4 -39q0 -53 30 -81t83 -28q43 0 74.5 14t68.5 44q37 -19 37 -54q-85 -73 -190 -73q-83 0 -132 41t-49 120zM205 1442l356 207q29 -18 35 -68l-371 -180q-17 15 -20 41z" />
<glyph unicode="&#x13b;" horiz-adv-x="927" d="M100 -2l234 1317q18 6 39 6q19 0 37 -6l-222 -1247h629q9 -37 -12 -70h-705zM342 -401q45 47 70.5 116t25.5 129q0 48 -4 66q20 8 43 8q20 0 35 -6q0 -2 1 -17t1 -24q0 -92 -43 -172t-102 -127q-20 7 -27 27z" />
<glyph unicode="&#x13c;" horiz-adv-x="559" d="M100 147q0 23 6 50l203 1153q16 4 37 4q17 0 37 -4l-201 -1147q-4 -28 -4 -39q0 -53 30 -81t83 -28q43 0 74.5 14t68.5 44q37 -19 37 -54q-85 -73 -190 -73q-83 0 -132 41t-49 120zM117 -401q45 47 70.5 116t25.5 129q0 48 -4 66q20 8 43 8q20 0 35 -6q0 -2 1 -17t1 -24 q0 -92 -43.5 -171.5t-102.5 -127.5q-19 6 -26 27z" />
<glyph unicode="&#x13d;" horiz-adv-x="927" d="M100 -2l234 1317q18 6 39 6q19 0 37 -6l-222 -1247h629q9 -37 -12 -70h-705zM639 1108q37 53 60.5 131t23.5 143q0 36 -4 60q17 10 45 10q24 0 35 -8l1 -14q1 -14 1 -23q0 -91 -41.5 -181t-91.5 -139q-26 3 -29 21z" />
<glyph unicode="&#x13e;" horiz-adv-x="559" d="M100 147q0 23 6 50l203 1153q16 4 37 4q17 0 37 -4l-201 -1147q-4 -28 -4 -39q0 -53 30 -81t83 -28q43 0 74.5 14t68.5 44q37 -19 37 -54q-85 -73 -190 -73q-83 0 -132 41t-49 120zM514 1108q37 53 60.5 131t23.5 143q0 36 -4 60q17 10 45 10q24 0 35 -8l1 -14 q1 -14 1 -23q0 -91 -41.5 -181t-91.5 -139q-26 3 -29 21z" />
<glyph unicode="&#x13f;" horiz-adv-x="931" d="M100 -2l234 1317q18 6 39 6q19 0 37 -6l-222 -1247h629q9 -37 -12 -70h-705zM653 684q0 28 21 49t49 21q29 0 49.5 -21t20.5 -49q0 -29 -20.5 -49.5t-49.5 -20.5q-28 0 -49 20.5t-21 49.5z" />
<glyph unicode="&#x140;" horiz-adv-x="528" d="M100 147q0 23 6 50l203 1153q16 4 37 4q17 0 37 -4l-201 -1147q-4 -28 -4 -39q0 -53 30 -81t83 -28q43 0 74.5 14t68.5 44q37 -19 37 -54q-85 -73 -190 -73q-83 0 -132 41t-49 120zM412 678q0 28 20 49t49 21t49.5 -21t20.5 -49q0 -29 -20.5 -49.5t-49.5 -20.5t-49 20.5 t-20 49.5z" />
<glyph unicode="&#x141;" horiz-adv-x="927" d="M37 578l182 88l115 649q18 6 39 6q19 0 37 -6l-109 -608l193 92q10 -8 18 -25.5t6 -30.5l-229 -110l-101 -565h629q9 -37 -12 -70h-705l105 594l-146 -70q-10 7 -17 24t-5 32z" />
<glyph unicode="&#x142;" horiz-adv-x="559" d="M27 637l172 84l110 629q16 4 37 4q17 0 37 -4l-102 -588l141 69q26 -22 20 -53l-174 -84l-86 -491q-4 -28 -4 -39q0 -53 30 -81t83 -28q43 0 74.5 14t68.5 44q37 -19 37 -54q-85 -73 -190 -73q-83 0 -132 41t-49 120q0 23 6 50l80 456l-139 -67q-23 17 -20 51z" />
<glyph unicode="&#x143;" horiz-adv-x="1335" d="M102 0l230 1309q37 18 74 10l565 -1161l14 -35l6 47l203 1147q18 6 37 6q22 0 37 -6l-232 -1311q-33 -10 -71 -10l-564 1151l-18 45l-6 -53l-201 -1139q-18 -6 -39 -6q-20 0 -35 6zM643 1442l356 207q29 -18 35 -68l-370 -180q-18 16 -21 41z" />
<glyph unicode="&#x144;" horiz-adv-x="1091" d="M68 0l157 903q164 82 383 82q175 0 257.5 -76t82.5 -209q0 -43 -10 -98l-107 -602q-15 -6 -38 -6q-22 0 -37 6l104 586q8 41 8 92q0 235 -276 235q-90 0 -170.5 -16.5t-128.5 -38.5l-150 -858q-15 -6 -39 -6q-21 0 -36 6zM463 1128l319 261q40 -21 49 -68l-339 -236 q-21 16 -29 43z" />
<glyph unicode="&#x145;" horiz-adv-x="1335" d="M102 0l230 1309q37 18 74 10l565 -1161l14 -35l6 47l203 1147q18 6 37 6q22 0 37 -6l-232 -1311q-33 -10 -71 -10l-564 1151l-18 45l-6 -53l-201 -1139q-18 -6 -39 -6q-20 0 -35 6zM440 -401q45 47 71 116t26 129q0 44 -5 66q20 8 43 8q20 0 35 -6q0 -2 1 -17t1 -24 q0 -92 -43 -172t-102 -127q-20 7 -27 27z" />
<glyph unicode="&#x146;" horiz-adv-x="1091" d="M68 0l157 903q164 82 383 82q175 0 257.5 -76t82.5 -209q0 -43 -10 -98l-107 -602q-15 -6 -38 -6q-22 0 -37 6l104 586q8 41 8 92q0 235 -276 235q-90 0 -170.5 -16.5t-128.5 -38.5l-150 -858q-15 -6 -39 -6q-21 0 -36 6zM315 -401q45 47 71 116t26 129q0 48 -4 66 q20 8 43 8q19 0 34 -6q0 -2 1 -17t1 -24q0 -92 -43 -172t-102 -127q-20 7 -27 27z" />
<glyph unicode="&#x147;" horiz-adv-x="1335" d="M102 0l230 1309q37 18 74 10l565 -1161l14 -35l6 47l203 1147q18 6 37 6q22 0 37 -6l-232 -1311q-33 -10 -71 -10l-564 1151l-18 45l-6 -53l-201 -1139q-18 -6 -39 -6q-20 0 -35 6zM594 1608q10 23 37 39l186 -191l254 191q24 -12 27 -39l-258 -217q-35 -6 -62 0z" />
<glyph unicode="&#x148;" horiz-adv-x="1091" d="M68 0l157 903q164 82 383 82q175 0 257.5 -76t82.5 -209q0 -43 -10 -98l-107 -602q-15 -6 -38 -6q-22 0 -37 6l104 586q8 41 8 92q0 235 -276 235q-90 0 -170.5 -16.5t-128.5 -38.5l-150 -858q-15 -6 -39 -6q-21 0 -36 6zM410 1350q13 26 39 34l178 -217l250 222 q26 -12 32 -41l-262 -252q-27 -6 -55 0z" />
<glyph unicode="&#x149;" horiz-adv-x="1124" d="M100 0l158 903q164 82 383 82q175 0 257.5 -76t82.5 -209q0 -43 -10 -98l-107 -602q-15 -6 -39 -6q-22 0 -37 6l105 586q8 41 8 92q0 235 -276 235q-90 0 -170.5 -16.5t-128.5 -38.5l-150 -858q-18 -6 -39 -6q-22 0 -37 6zM164 1010q55 55 82.5 137t27.5 147q0 43 -6 70 q19 8 45 8q27 0 37 -6q4 -12 4 -47q0 -104 -52 -193t-116 -141q-8 2 -15 9t-7 16z" />
<glyph unicode="&#x14a;" horiz-adv-x="1335" d="M102 0l230 1309q37 18 74 10l565 -1161l14 -35v6l6 41l203 1147q18 6 37 6q22 0 37 -6l-232 -1311l-14 -78q-30 -173 -113 -251t-231 -78q-81 0 -138 30t-73 60q15 39 57 51q68 -72 158 -72q117 0 178.5 59t87.5 205l13 70l-560 1145l-18 45l-6 -53l-201 -1139 q-18 -6 -39 -6q-20 0 -35 6z" />
<glyph unicode="&#x14b;" horiz-adv-x="1091" d="M68 0l157 903q164 82 383 82q175 0 257.5 -76t82.5 -209q0 -43 -10 -98l-119 -670q-29 -171 -116 -251t-207 -80q-135 0 -193 84q11 32 53 51q28 -35 59 -50.5t93 -15.5q80 0 145.5 62.5t89.5 195.5l117 658q8 41 8 92q0 235 -276 235q-90 0 -170.5 -16.5t-128.5 -38.5 l-150 -858q-15 -6 -39 -6q-21 0 -36 6z" />
<glyph unicode="&#x14c;" horiz-adv-x="1390" d="M127 522q0 238 84 425.5t234 291.5t339 104q241 0 376.5 -150.5t135.5 -395.5q0 -374 -181.5 -597t-481.5 -223q-239 0 -372.5 148t-133.5 397zM209 528q0 -223 113.5 -351t324.5 -128q176 0 305 95t195.5 263t66.5 388q0 218 -115 347.5t-327 129.5q-168 0 -297.5 -97.5 t-197.5 -266t-68 -380.5zM559 1485q-9 21 12 63h496q4 -32 -10 -63h-498z" />
<glyph unicode="&#x14d;" d="M88 389q0 165 61 300.5t177 216.5t266 81q180 0 277.5 -112t97.5 -300q0 -165 -59 -299.5t-172 -215t-261 -80.5q-183 0 -285 111.5t-102 297.5zM168 403q0 -160 81 -257t236 -97q94 0 171.5 43t127.5 115t77.5 163.5t27.5 190.5q0 162 -77 258t-230 96q-99 0 -179.5 -44 t-130.5 -117t-77 -163.5t-27 -187.5zM365 1190q0 19 12 49h491l2 -16q0 -28 -14 -49h-489q-2 4 -2 16z" />
<glyph unicode="&#x150;" horiz-adv-x="1390" d="M127 522q0 238 84 425.5t234 291.5t339 104q241 0 376.5 -150.5t135.5 -395.5q0 -374 -181.5 -597t-481.5 -223q-239 0 -372.5 148t-133.5 397zM209 528q0 -223 113.5 -351t324.5 -128q176 0 305 95t195.5 263t66.5 388q0 218 -115 347.5t-327 129.5q-168 0 -297.5 -97.5 t-197.5 -266t-68 -380.5zM512 1403l252 289q36 -9 51 -52l-274 -266q-24 12 -29 29zM819 1403l250 289q36 -8 51 -52l-274 -266q-21 8 -27 29z" />
<glyph unicode="&#x151;" d="M88 389q0 165 61 300.5t177 216.5t266 81q180 0 277.5 -112t97.5 -300q0 -165 -59 -299.5t-172 -215t-261 -80.5q-183 0 -285 111.5t-102 297.5zM168 403q0 -160 81 -257t236 -97q94 0 171.5 43t127.5 115t77.5 163.5t27.5 190.5q0 162 -77 258t-230 96q-99 0 -179.5 -44 t-130.5 -117t-77 -163.5t-27 -187.5zM332 1090l237 317q38 -7 58 -43l-260 -301q-24 8 -35 27zM618 1092l236 315q22 -4 34 -13.5t25 -29.5l-260 -301q-25 8 -35 29z" />
<glyph unicode="&#x152;" horiz-adv-x="1691" d="M125 514q0 223 85.5 408t245 296t361.5 111q118 0 203 -14h686v-19q0 -28 -14 -53h-613l-90 -522h551v-19q0 -30 -14 -55h-551l-101 -575h637q2 -4 2 -19q0 -28 -14 -53h-706q-88 -16 -181 -16q-153 0 -264.5 68.5t-167 187t-55.5 274.5zM207 524q0 -210 110 -337.5 t310 -127.5q97 0 170 15l204 1163q-86 18 -198 18q-134 0 -248 -60.5t-189 -162t-117 -233.5t-42 -275z" />
<glyph unicode="&#x153;" horiz-adv-x="1742" d="M92 408q0 255 133 417t346 162q147 0 239.5 -82t119.5 -221q62 143 176.5 222t249.5 79q143 0 223 -70.5t80 -177.5q0 -147 -115 -233t-350 -86q-134 0 -250 39q-2 -23 -2 -66q0 -162 82 -252t225 -90q70 0 130 20.5t91 42t66 54.5q33 -11 43 -51q-143 -135 -340 -135 q-139 0 -233 71t-123 209q-57 -131 -160.5 -205.5t-239.5 -74.5q-196 0 -293.5 113.5t-97.5 314.5zM172 418q0 -173 77 -270t243 -97q116 0 201.5 66.5t129 181t43.5 262.5q0 160 -78 257t-227 97q-91 0 -165.5 -39t-123 -107t-74.5 -158t-26 -193zM954 524q108 -39 248 -39 q192 0 284.5 68t92.5 172q0 79 -61 134.5t-175 55.5q-138 0 -248 -105t-141 -286z" />
<glyph unicode="&#x154;" horiz-adv-x="1112" d="M100 0l228 1294q154 43 327 43q197 0 293 -88t96 -233q0 -190 -112 -309t-299 -148q153 -319 348 -555q-27 -6 -59 -6h-27q-191 234 -342 553h-37q-160 0 -242 10l-98 -561q-15 -6 -39 -6q-22 0 -37 6zM289 635q76 -14 241 -14q213 0 326 109t113 278q0 112 -82.5 185 t-245.5 73q-126 0 -246 -27zM506 1442l356 207q29 -18 35 -68l-371 -180q-17 15 -20 41z" />
<glyph unicode="&#x155;" horiz-adv-x="712" d="M68 0l157 903q153 82 355 82q110 0 178 -22q-6 -38 -31 -70q-65 20 -164 20q-75 0 -149 -16t-119 -39l-150 -858q-18 -6 -41 -6q-21 0 -36 6zM375 1128l319 261q40 -21 49 -68l-340 -236q-19 15 -28 43z" />
<glyph unicode="&#x156;" horiz-adv-x="1112" d="M100 0l228 1294q154 43 327 43q197 0 293 -88t96 -233q0 -190 -112 -309t-299 -148q153 -319 348 -555q-27 -6 -59 -6h-27q-191 234 -342 553h-37q-160 0 -242 10l-98 -561q-15 -6 -39 -6q-22 0 -37 6zM289 635q76 -14 241 -14q213 0 326 109t113 278q0 112 -82.5 185 t-245.5 73q-126 0 -246 -27zM350 -401q45 47 70.5 116t25.5 129q0 48 -4 66q20 8 43 8q20 0 35 -6q0 -2 1 -17t1 -24q0 -92 -43 -172t-102 -127q-20 7 -27 27z" />
<glyph unicode="&#x157;" horiz-adv-x="712" d="M-25 -401q45 47 71 116t26 129q0 48 -4 66q20 8 43 8q19 0 34 -6q0 -2 1 -17t1 -24q0 -92 -43 -172t-102 -127q-20 7 -27 27zM68 0l157 903q153 82 355 82q110 0 178 -22q-6 -38 -31 -70q-65 20 -164 20q-75 0 -149 -16t-119 -39l-150 -858q-18 -6 -41 -6q-21 0 -36 6z " />
<glyph unicode="&#x158;" horiz-adv-x="1112" d="M100 0l228 1294q154 43 327 43q197 0 293 -88t96 -233q0 -190 -112 -309t-299 -148q153 -319 348 -555q-27 -6 -59 -6h-27q-191 234 -342 553h-37q-160 0 -242 10l-98 -561q-15 -6 -39 -6q-22 0 -37 6zM289 635q76 -14 241 -14q213 0 326 109t113 278q0 112 -82.5 185 t-245.5 73q-126 0 -246 -27zM457 1608q10 23 37 39l186 -191l254 191q24 -12 27 -39l-259 -217q-34 -6 -61 0z" />
<glyph unicode="&#x159;" horiz-adv-x="712" d="M68 0l157 903q153 82 355 82q110 0 178 -22q-6 -38 -31 -70q-65 20 -164 20q-75 0 -149 -16t-119 -39l-150 -858q-18 -6 -41 -6q-21 0 -36 6zM322 1350q13 27 38 34l179 -217l249 222q27 -12 33 -41l-262 -252q-28 -6 -55 0z" />
<glyph unicode="&#x15a;" horiz-adv-x="1026" d="M16 127q13 38 56 57q113 -139 358 -139q176 0 276.5 84t100.5 221q0 60 -20.5 106.5t-55 76.5t-80 54t-95 43l-99 38t-95 45.5t-80 59.5t-55 84.5t-20.5 117.5q0 168 120 266t316 98q246 0 363 -131q-17 -42 -56 -59q-119 119 -315 119q-158 0 -254 -78t-96 -211 q0 -54 20.5 -96t55 -69.5t80 -49.5t95 -41t99 -38.5t95 -47t80 -63t55 -89.5t20.5 -123q0 -174 -126 -282.5t-339 -108.5q-274 0 -404 156zM496 1442l356 207q29 -18 35 -68l-371 -180q-17 15 -20 41z" />
<glyph unicode="&#x15b;" horiz-adv-x="868" d="M16 96q17 42 50 58q49 -46 118 -74.5t183 -28.5q127 0 200.5 59.5t73.5 157.5q0 57 -27.5 96t-71 59.5t-96.5 36t-106 33t-96.5 42.5t-71 72t-27.5 114q0 115 97 189.5t258 74.5q106 0 185 -28.5t118 -65.5q-14 -35 -45 -57q-104 81 -271 81q-119 0 -191.5 -52.5 t-72.5 -135.5q0 -52 27.5 -88.5t71 -56t96.5 -34.5t106 -33.5t96.5 -44t71 -73.5t27.5 -116q0 -136 -101.5 -217.5t-263.5 -81.5q-120 0 -205 33t-133 81zM362 1128l320 261q40 -21 49 -68l-340 -236q-21 16 -29 43z" />
<glyph unicode="&#x15e;" horiz-adv-x="1026" d="M16 127q13 38 56 57q113 -139 358 -139q176 0 276.5 84t100.5 221q0 60 -20.5 106.5t-55 76.5t-80 54t-95 43l-99 38t-95 45.5t-80 59.5t-55 84.5t-20.5 117.5q0 168 120 266t316 98q246 0 363 -131q-17 -42 -56 -59q-119 119 -315 119q-158 0 -254 -78t-96 -211 q0 -54 20.5 -96t55 -69.5t80 -49.5t95 -41t99 -38.5t95 -47t80 -63t55 -89.5t20.5 -123q0 -169 -121 -277t-324 -114l-26 -63q71 -15 106 -42.5t35 -82.5q0 -61 -38 -101t-87.5 -54.5t-107.5 -14.5q-86 0 -111 18q7 34 27 54q37 -15 90 -15q65 0 110 26t45 77 q0 44 -32.5 61.5t-118.5 30.5l49 106q-244 13 -365 156z" />
<glyph unicode="&#x15f;" horiz-adv-x="868" d="M16 96q17 42 50 58q49 -46 118 -74.5t183 -28.5q127 0 200.5 59.5t73.5 157.5q0 57 -27.5 96t-71 59.5t-96.5 36t-106 33t-96.5 42.5t-71 72t-27.5 114q0 115 97 189.5t258 74.5q106 0 185 -28.5t118 -65.5q-14 -35 -45 -57q-104 81 -271 81q-119 0 -191.5 -52.5 t-72.5 -135.5q0 -52 27.5 -88.5t71 -56t96.5 -34.5t106 -33.5t96.5 -44t71 -73.5t27.5 -116q0 -132 -96 -213t-250 -86l-31 -74q71 -15 106 -42.5t35 -82.5q0 -61 -38 -101t-87.5 -54.5t-107.5 -14.5q-86 0 -111 18q7 34 27 54q38 -15 90 -15q66 0 111 26t45 77 q0 44 -33 61.5t-119 30.5l53 119q-195 10 -297 112z" />
<glyph unicode="&#x160;" horiz-adv-x="1026" d="M16 127q13 38 56 57q113 -139 358 -139q176 0 276.5 84t100.5 221q0 60 -20.5 106.5t-55 76.5t-80 54t-95 43l-99 38t-95 45.5t-80 59.5t-55 84.5t-20.5 117.5q0 168 120 266t316 98q246 0 363 -131q-17 -42 -56 -59q-119 119 -315 119q-158 0 -254 -78t-96 -211 q0 -54 20.5 -96t55 -69.5t80 -49.5t95 -41t99 -38.5t95 -47t80 -63t55 -89.5t20.5 -123q0 -174 -126 -282.5t-339 -108.5q-274 0 -404 156zM446 1608q10 23 37 39l187 -191l254 191q23 -11 26 -39l-258 -217q-34 -6 -61 0z" />
<glyph unicode="&#x161;" horiz-adv-x="868" d="M16 96q17 42 50 58q49 -46 118 -74.5t183 -28.5q127 0 200.5 59.5t73.5 157.5q0 57 -27.5 96t-71 59.5t-96.5 36t-106 33t-96.5 42.5t-71 72t-27.5 114q0 115 97 189.5t258 74.5q106 0 185 -28.5t118 -65.5q-14 -35 -45 -57q-104 81 -271 81q-119 0 -191.5 -52.5 t-72.5 -135.5q0 -52 27.5 -88.5t71 -56t96.5 -34.5t106 -33.5t96.5 -44t71 -73.5t27.5 -116q0 -136 -101.5 -217.5t-263.5 -81.5q-120 0 -205 33t-133 81zM309 1350q13 26 39 34l178 -217l250 222q27 -12 33 -41l-262 -252q-27 -6 -55 0z" />
<glyph unicode="&#x162;" horiz-adv-x="1036" d="M156 1245q-6 30 12 70h965q5 -35 -13 -70h-446l-217 -1245q-2 0 -5.5 -1t-5.5 -1l-36 -90q71 -15 106 -42.5t35 -82.5q0 -46 -21.5 -80.5t-57 -53t-74.5 -27.5t-81 -9q-85 0 -110 18q7 35 26 54q37 -15 91 -15q65 0 110 26t45 77q0 44 -32.5 61.5t-118.5 30.5l59 133 l-8 2l219 1245h-442z" />
<glyph unicode="&#x163;" horiz-adv-x="743" d="M90 893v16q0 27 12 47h211l47 263q15 6 39 6q23 0 35 -6l-45 -263h365l2 -16q0 -25 -15 -47h-364l-103 -588q-12 -52 -12 -106q0 -79 44.5 -114.5t119.5 -35.5q57 0 98.5 16.5t93.5 49.5q31 -22 31 -58q-117 -77 -239 -77h-2l-31 -72q71 -15 106 -42.5t35 -82.5 q0 -61 -38 -101t-87.5 -54.5t-107.5 -14.5q-86 0 -111 18q7 34 27 54q37 -15 90 -15q65 0 110 26t45 77q0 44 -32.5 61.5t-118.5 30.5l53 119q-164 31 -164 194q0 40 11 101l108 614h-213z" />
<glyph unicode="&#x164;" horiz-adv-x="1036" d="M156 1245q-6 30 12 70h965q5 -35 -13 -70h-446l-217 -1245q-21 -6 -41 -6q-19 0 -37 6l219 1245h-442zM438 1608q10 23 37 39l187 -191l253 191q24 -12 27 -39l-258 -217q-34 -6 -61 0z" />
<glyph unicode="&#x165;" horiz-adv-x="743" d="M90 893v16q0 27 12 47h211l47 263q15 6 39 6q23 0 35 -6l-45 -263h365l2 -16q0 -25 -15 -47h-364l-103 -588q-12 -52 -12 -106q0 -79 44.5 -114.5t119.5 -35.5q57 0 98.5 16.5t93.5 49.5q31 -22 31 -58q-117 -77 -239 -77q-101 0 -163.5 49.5t-62.5 148.5q0 40 11 101 l108 614h-213zM633 1108q37 53 60.5 131t23.5 143q0 36 -4 60q17 10 45 10q24 0 35 -8l1 -14q1 -14 1 -23q0 -91 -41.5 -181t-91.5 -139q-26 3 -29 21z" />
<glyph unicode="&#x166;" horiz-adv-x="1036" d="M156 1245q-6 30 12 70h965q5 -35 -13 -70h-446l-99 -563h181q3 -30 -11 -55h-180l-108 -627q-21 -6 -41 -6q-19 0 -37 6l110 627h-186q-4 36 10 55h187l98 563h-442z" />
<glyph unicode="&#x167;" horiz-adv-x="743" d="M76 514q-4 36 10 55h160l57 324h-213v16q0 27 12 47h211l47 263q15 6 39 6q23 0 35 -6l-45 -263h365l2 -16q0 -25 -15 -47h-364l-55 -324h206q3 -31 -10 -55h-207l-37 -209q-12 -52 -12 -106q0 -79 44.5 -114.5t119.5 -35.5q57 0 98.5 16.5t93.5 49.5q31 -22 31 -58 q-117 -77 -239 -77q-101 0 -163.5 49.5t-62.5 148.5q0 40 11 101l41 235h-160z" />
<glyph unicode="&#x168;" horiz-adv-x="1314" d="M164 367q0 60 14 149l139 799q21 6 41 6q22 0 37 -6l-139 -799q-14 -82 -14 -137q0 -151 84 -239.5t260 -88.5q110 0 192.5 33.5t135 98t83.5 143.5t50 186l141 803q18 6 39 6q22 0 37 -6l-144 -811q-21 -120 -60 -212.5t-103 -165.5t-162 -112t-226 -39 q-200 0 -302.5 104t-102.5 288zM500 1464q45 73 89.5 106.5t112.5 33.5q47 0 95 -23t92 -45.5t80 -22.5q75 0 114 93q39 0 56 -21q-28 -67 -73 -103t-101 -36q-48 0 -95.5 22.5t-90.5 45t-81 22.5q-46 0 -79 -24t-66 -72q-39 3 -53 24z" />
<glyph unicode="&#x169;" horiz-adv-x="1079" d="M115 254q0 38 10 96l104 602q21 6 41 6q22 0 37 -6l-102 -579q-8 -49 -8 -101q0 -106 60 -164.5t200 -58.5q159 0 301 57l147 846q18 6 41 6q22 0 37 -6l-160 -895q-180 -82 -383 -82q-164 0 -244.5 73.5t-80.5 205.5zM338 1182q40 69 86 102t111 33q45 0 91 -22t87 -44 t75 -22q71 0 109 90q39 0 57 -21q-24 -65 -69.5 -101t-98.5 -36q-46 0 -90.5 22t-84.5 44t-76 22q-44 0 -77 -23.5t-67 -70.5q-36 4 -53 27z" />
<glyph unicode="&#x16a;" horiz-adv-x="1314" d="M164 367q0 60 14 149l139 799q21 6 41 6q22 0 37 -6l-139 -799q-14 -82 -14 -137q0 -151 84 -239.5t260 -88.5q110 0 192.5 33.5t135 98t83.5 143.5t50 186l141 803q18 6 39 6q22 0 37 -6l-144 -811q-21 -120 -60 -212.5t-103 -165.5t-162 -112t-226 -39 q-200 0 -302.5 104t-102.5 288zM565 1485q-9 20 13 63h495q4 -32 -10 -63h-498z" />
<glyph unicode="&#x16b;" horiz-adv-x="1079" d="M115 254q0 38 10 96l104 602q21 6 41 6q22 0 37 -6l-102 -579q-8 -49 -8 -101q0 -106 60 -164.5t200 -58.5q159 0 301 57l147 846q18 6 41 6q22 0 37 -6l-160 -895q-180 -82 -383 -82q-164 0 -244.5 73.5t-80.5 205.5zM387 1190q0 19 12 49h492l2 -16q0 -28 -14 -49h-490 q-2 4 -2 16z" />
<glyph unicode="&#x16e;" horiz-adv-x="1314" d="M164 367q0 60 14 149l139 799q21 6 41 6q22 0 37 -6l-139 -799q-14 -82 -14 -137q0 -151 84 -239.5t260 -88.5q110 0 192.5 33.5t135 98t83.5 143.5t50 186l141 803q18 6 39 6q22 0 37 -6l-144 -811q-21 -120 -60 -212.5t-103 -165.5t-162 -112t-226 -39 q-200 0 -302.5 104t-102.5 288zM645 1495q0 90 58 148.5t135 58.5q73 0 115 -43.5t42 -110.5q0 -97 -55 -153t-137 -56q-73 0 -115.5 44t-42.5 112zM705 1503q0 -47 26.5 -76.5t79.5 -29.5q57 0 91 39t34 104q0 46 -26 75.5t-79 29.5t-89.5 -41t-36.5 -101z" />
<glyph unicode="&#x16f;" horiz-adv-x="1079" d="M115 254q0 38 10 96l104 602q21 6 41 6q22 0 37 -6l-102 -579q-8 -49 -8 -101q0 -106 60 -164.5t200 -58.5q159 0 301 57l147 846q18 6 41 6q22 0 37 -6l-160 -895q-180 -82 -383 -82q-164 0 -244.5 73.5t-80.5 205.5zM467 1206q0 90 57 148.5t135 58.5q75 0 116.5 -44.5 t41.5 -115.5q0 -92 -55.5 -148t-136.5 -56q-74 0 -116 43.5t-42 113.5zM526 1214q0 -47 26.5 -76.5t78.5 -29.5q59 0 93 36.5t34 102.5q0 49 -25.5 78t-79.5 29q-52 0 -89.5 -40t-37.5 -100z" />
<glyph unicode="&#x170;" horiz-adv-x="1314" d="M164 367q0 60 14 149l139 799q21 6 41 6q22 0 37 -6l-139 -799q-14 -82 -14 -137q0 -151 84 -239.5t260 -88.5q110 0 192.5 33.5t135 98t83.5 143.5t50 186l141 803q18 6 39 6q22 0 37 -6l-144 -811q-21 -120 -60 -212.5t-103 -165.5t-162 -112t-226 -39 q-200 0 -302.5 104t-102.5 288zM518 1403l252 289q36 -9 51 -52l-274 -266q-24 12 -29 29zM825 1403l250 289q36 -8 51 -52l-274 -266q-21 8 -27 29z" />
<glyph unicode="&#x171;" horiz-adv-x="1079" d="M115 254q0 38 10 96l104 602q21 6 41 6q22 0 37 -6l-102 -579q-8 -49 -8 -101q0 -106 60 -164.5t200 -58.5q159 0 301 57l147 846q18 6 41 6q22 0 37 -6l-160 -895q-180 -82 -383 -82q-164 0 -244.5 73.5t-80.5 205.5zM352 1090l238 317q22 -4 34 -13.5t23 -29.5 l-260 -301q-24 8 -35 27zM639 1092l235 315q37 -7 60 -43l-260 -301q-25 8 -35 29z" />
<glyph unicode="&#x172;" horiz-adv-x="1314" d="M164 367q0 60 14 149l139 799q21 6 41 6q22 0 37 -6l-139 -799q-14 -82 -14 -137q0 -151 84 -239.5t260 -88.5q110 0 192.5 33.5t135 98t83.5 143.5t50 186l141 803q18 6 39 6q22 0 37 -6l-144 -811q-62 -359 -286 -471q-195 -136 -195 -254q0 -38 23.5 -58t56.5 -20 q46 0 104 37q11 -5 20 -18t9 -27q-71 -60 -156 -60q-61 0 -98 33.5t-37 93.5q0 109 141 228q-67 -13 -133 -13q-200 0 -302.5 104t-102.5 288z" />
<glyph unicode="&#x173;" horiz-adv-x="1079" d="M115 254q0 38 10 96l104 602q21 6 41 6q22 0 37 -6l-102 -579q-8 -49 -8 -101q0 -106 60 -164.5t200 -58.5q159 0 301 57l147 846q18 6 41 6q22 0 37 -6l-160 -895h2q-104 -65 -168.5 -137.5t-64.5 -140.5q0 -38 23.5 -58t56.5 -20q46 0 104 37q11 -5 20 -18t9 -27 q-71 -60 -156 -60q-61 0 -98 33.5t-37 93.5q0 119 164 246q-114 -31 -238 -31q-164 0 -244.5 73.5t-80.5 205.5z" />
<glyph unicode="&#x174;" horiz-adv-x="1789" d="M201 1315q20 8 49 8q19 0 31 -4q7 -702 129 -1260q412 577 567 1223q20 4 39 4q21 0 33 -4q-6 -600 112 -1219q437 589 604 1256q10 2 35 2q29 0 41 -6q-196 -735 -651 -1317q-24 -6 -45 -6q-23 0 -41 6q-106 490 -115 965q0 21 -1 63t-1 64l-37 -125 q-92 -286 -216 -517.5t-294 -449.5q-24 -6 -45 -6q-23 0 -47 6q-129 512 -147 1317zM772 1425l258 217q35 6 62 0l184 -217q-9 -20 -37 -39l-186 191l-256 -191q-22 13 -25 39z" />
<glyph unicode="&#x175;" horiz-adv-x="1488" d="M131 950q24 6 49 6q19 0 31 -4q1 -208 44 -471t85 -387q2 -12 10 -41q8 10 23 25q89 90 167.5 208.5t133 258t55.5 254.5q-4 48 -8 151q24 6 49 6q19 0 31 -4q0 -214 40 -470t83 -388q7 -22 10 -41q4 5 24 25q150 139 266.5 342.5t116.5 361.5q0 107 -38 181q12 4 40 4 q17 0 41 -4q33 -70 33 -181q0 -123 -71.5 -279.5t-175.5 -289t-212 -215.5q-18 -6 -40 -6q-26 0 -41 6q-73 213 -125 590q-49 -167 -156 -329t-223 -261q-18 -6 -41 -6q-27 0 -39 6q-60 166 -109 445.5t-53 506.5zM508 1130l268 259q28 9 53 0l183 -263q-14 -24 -43 -34 l-172 227l-256 -229q-27 12 -33 40z" />
<glyph unicode="&#x176;" d="M166 1315q32 8 53 8t27 -2l299 -674l10 -29l18 29l523 674q10 2 34 2q22 0 50 -8l-598 -770l-97 -545q-18 -6 -39 -6t-36 6l96 549zM424 1425l258 217q34 6 61 0l185 -217q-9 -20 -37 -39l-186 191l-256 -191q-22 13 -25 39z" />
<glyph unicode="&#x177;" horiz-adv-x="1079" d="M18 -258q16 41 60 53q91 -117 287 -117q154 0 247.5 87.5t120.5 244.5l19 103q-153 -82 -322 -82q-182 0 -255 101t-42 274l96 546q18 6 39 6q22 0 37 -6l-92 -526q-15 -68 -9 -127t30 -102.5t81.5 -68t145.5 -24.5q157 0 305 89l133 759q18 6 41 6t35 -6l-166 -942 q-33 -190 -148 -295.5t-299 -105.5q-243 0 -344 133zM377 1130l268 259q28 9 53 0l183 -263q-14 -24 -43 -34l-172 227l-256 -229q-27 12 -33 40z" />
<glyph unicode="&#x178;" d="M166 1315q32 8 53 8t27 -2l299 -674l10 -29l18 29l523 674q10 2 34 2q22 0 50 -8l-598 -770l-97 -545q-18 -6 -39 -6t-36 6l96 549zM432 1538q0 26 20 46t46 20q28 0 47.5 -20t19.5 -46q0 -28 -19.5 -46.5t-47.5 -18.5q-27 0 -46.5 19t-19.5 46zM825 1538q0 26 20 46 t46 20q27 0 47 -20t20 -46q0 -28 -19.5 -46.5t-47.5 -18.5q-27 0 -46.5 19t-19.5 46z" />
<glyph unicode="&#x179;" horiz-adv-x="1073" d="M-18 27q0 38 30 71l969 1102l41 45h-821q-5 39 12 70h901l2 -21q0 -39 -35 -84l-970 -1104l-37 -36h850q4 -32 -13 -70h-925q-4 8 -4 27zM508 1442l356 207q29 -18 35 -68l-371 -180q-17 15 -20 41z" />
<glyph unicode="&#x17a;" horiz-adv-x="935" d="M-16 16q0 8 2.5 15.5t10 17.5t11.5 15t17 19.5t16 18.5l694 762l29 25h-627q-4 32 10 65h711q2 -4 2 -18q0 -38 -43 -84l-651 -715q134 -90 311 -90q158 0 311 66q26 -23 23 -60q-148 -71 -340 -71q-207 0 -358 98l-86 -94q-43 0 -43 30zM354 1128l320 261q40 -21 49 -68 l-340 -236q-21 16 -29 43z" />
<glyph unicode="&#x17b;" horiz-adv-x="1073" d="M-18 27q0 38 30 71l969 1102l41 45h-821q-5 39 12 70h901l2 -21q0 -39 -35 -84l-970 -1104l-37 -36h850q4 -32 -13 -70h-925q-4 8 -4 27zM633 1542q0 29 20.5 50.5t48.5 21.5q29 0 49.5 -21.5t20.5 -50.5t-20.5 -49t-49.5 -20q-28 0 -48.5 20t-20.5 49z" />
<glyph unicode="&#x17c;" horiz-adv-x="935" d="M-16 16q0 8 2.5 15.5t10 17.5t11.5 15t17 19.5t16 18.5l694 762l29 25h-627q-4 32 10 65h711q2 -4 2 -18q0 -38 -43 -84l-651 -715q134 -90 311 -90q158 0 311 66q26 -23 23 -60q-148 -71 -340 -71q-207 0 -358 98l-86 -94q-43 0 -43 30zM469 1249q0 28 21 49t49 21 q29 0 49 -21t20 -49q0 -29 -20 -50t-49 -21q-28 0 -49 21t-21 50z" />
<glyph unicode="&#x17d;" horiz-adv-x="1073" d="M-18 27q0 38 30 71l969 1102l41 45h-821q-5 39 12 70h901l2 -21q0 -39 -35 -84l-970 -1104l-37 -36h850q4 -32 -13 -70h-925q-4 8 -4 27zM459 1608q10 23 37 39l186 -191l254 191q24 -12 27 -39l-258 -217q-35 -6 -62 0z" />
<glyph unicode="&#x17e;" horiz-adv-x="935" d="M-16 16q0 8 2.5 15.5t10 17.5t11.5 15t17 19.5t16 18.5l694 762l29 25h-627q-4 32 10 65h711q2 -4 2 -18q0 -38 -43 -84l-651 -715q134 -90 311 -90q158 0 311 66q26 -23 23 -60q-148 -71 -340 -71q-207 0 -358 98l-86 -94q-43 0 -43 30zM301 1350q13 26 39 34l178 -217 l250 222q27 -12 33 -41l-262 -252q-28 -6 -56 0z" />
<glyph unicode="&#x1ea;" horiz-adv-x="1390" d="M127 522q0 238 84 425.5t234 291.5t339 104q241 0 376.5 -150.5t135.5 -395.5q0 -300 -119.5 -507t-330.5 -278q-166 -127 -166 -233q0 -38 23.5 -58t56.5 -20q46 0 104 37q11 -5 20 -18t9 -27q-71 -60 -156 -60q-61 0 -98 33.5t-37 93.5q0 114 139 226q-53 -9 -108 -9 q-239 0 -372.5 148t-133.5 397zM209 528q0 -223 113.5 -351t324.5 -128q176 0 305 95t195.5 263t66.5 388q0 218 -115 347.5t-327 129.5q-168 0 -297.5 -97.5t-197.5 -266t-68 -380.5z" />
<glyph unicode="&#x1eb;" d="M88 389q0 165 61 300.5t177 216.5t266 81q180 0 277.5 -112t97.5 -300q0 -191 -81 -342t-222 -215q-177 -127 -177 -239q0 -38 23.5 -58t56.5 -20q47 0 105 37q11 -5 19.5 -18t8.5 -27q-71 -60 -155 -60q-61 0 -98 33.5t-37 93.5q0 108 139 226q-37 -6 -74 -6 q-183 0 -285 111.5t-102 297.5zM168 403q0 -160 81 -257t236 -97q94 0 171.5 43t127.5 115t77.5 163.5t27.5 190.5q0 162 -77 258t-230 96q-99 0 -179.5 -44t-130.5 -117t-77 -163.5t-27 -187.5z" />
<glyph unicode="&#x1fc;" horiz-adv-x="1544" d="M-90 4l975 1311h674q3 -36 -15 -72h-559l-106 -610h499q5 -38 -12 -72h-502l-86 -489h588q6 -35 -12 -72h-664l98 561h-378l-420 -563q-16 -4 -27 -4q-26 0 -53 10zM463 633h338l98 555l8 45l-33 -47zM940 1442l356 207q29 -18 35 -68l-370 -180q-18 16 -21 41z" />
<glyph unicode="&#x1fd;" horiz-adv-x="1615" d="M78 311q0 136 41.5 260t112 215t171 145t213.5 54q192 0 314 -151q147 151 332 151q128 0 203 -66t75 -182q0 -160 -120.5 -240.5t-334.5 -80.5q-117 0 -245 28q0 -6 -3 -37.5t-3 -50.5q6 -155 80.5 -231t203.5 -76q51 0 94.5 9.5t80 29t56.5 33t50 37.5q34 -13 43 -56 q-75 -57 -151 -89.5t-183 -32.5q-155 0 -244 84t-98 241q-66 -149 -180 -237t-244 -88q-54 0 -99.5 18t-83.5 55.5t-59.5 103.5t-21.5 154zM158 322q0 -133 55 -202t145 -69q128 0 251.5 130t158.5 300q37 172 113 289q-95 143 -275 143q-129 0 -233 -82.5t-159.5 -217 t-55.5 -291.5zM791 1128l319 261q40 -21 49 -68l-340 -236q-19 15 -28 43zM848 510q123 -27 235 -27q179 0 278 64t99 182q0 82 -56 134t-155 52q-42 0 -84 -11t-90.5 -39.5t-89.5 -72.5t-78 -116.5t-59 -165.5z" />
<glyph unicode="&#x1fe;" horiz-adv-x="1390" d="M127 522q0 238 84 425.5t234 291.5t339 104q185 0 310 -92l112 166q38 -3 51 -35l-114 -170q153 -150 153 -415q0 -374 -181.5 -597t-481.5 -223q-159 0 -281 72l-102 -149q-40 6 -51 39l102 149q-86 70 -130 181.5t-44 252.5zM209 528q0 -246 137 -374l705 1034 q-114 84 -279 84q-168 0 -297.5 -97.5t-197.5 -266t-68 -380.5zM395 115q104 -66 252 -66q176 0 305 95t195.5 263t66.5 388q0 223 -118 350zM584 1442l356 207q29 -18 35 -68l-371 -180q-17 15 -20 41z" />
<glyph unicode="&#x1ff;" d="M88 389q0 165 61 300.5t177 216.5t266 81q119 0 201 -49l108 168q35 -4 49 -31l-110 -170q127 -112 127 -330q0 -165 -59 -299.5t-172 -215t-261 -80.5q-117 0 -207 49l-112 -174q-37 3 -50 32l115 174q-133 114 -133 328zM168 403q0 -176 96 -272l486 741 q-67 43 -168 43q-99 0 -179.5 -44t-130.5 -117t-77 -163.5t-27 -187.5zM311 94q73 -45 174 -45q94 0 171.5 43t127.5 115t77.5 163.5t27.5 190.5q0 183 -94 277zM395 1128l320 261q40 -21 49 -68l-340 -236q-21 16 -29 43z" />
<glyph unicode="&#x218;" horiz-adv-x="1026" d="M16 127q13 38 56 57q113 -139 358 -139q176 0 276.5 84t100.5 221q0 60 -20.5 106.5t-55 76.5t-80 54t-95 43l-99 38t-95 45.5t-80 59.5t-55 84.5t-20.5 117.5q0 168 120 266t316 98q246 0 363 -131q-17 -42 -56 -59q-119 119 -315 119q-158 0 -254 -78t-96 -211 q0 -54 20.5 -96t55 -69.5t80 -49.5t95 -41t99 -38.5t95 -47t80 -63t55 -89.5t20.5 -123q0 -174 -126 -282.5t-339 -108.5q-274 0 -404 156zM295 -401q45 47 70.5 116t25.5 129q0 48 -4 66q20 8 43 8q20 0 35 -6q0 -2 1 -17t1 -24q0 -92 -43 -172t-102 -127q-20 7 -27 27z " />
<glyph unicode="&#x219;" horiz-adv-x="868" d="M16 96q17 42 50 58q49 -46 118 -74.5t183 -28.5q127 0 200.5 59.5t73.5 157.5q0 57 -27.5 96t-71 59.5t-96.5 36t-106 33t-96.5 42.5t-71 72t-27.5 114q0 115 97 189.5t258 74.5q106 0 185 -28.5t118 -65.5q-14 -35 -45 -57q-104 81 -271 81q-119 0 -191.5 -52.5 t-72.5 -135.5q0 -52 27.5 -88.5t71 -56t96.5 -34.5t106 -33.5t96.5 -44t71 -73.5t27.5 -116q0 -136 -101.5 -217.5t-263.5 -81.5q-120 0 -205 33t-133 81zM223 -401q45 47 70.5 116t25.5 129q0 48 -4 66q20 8 43 8q20 0 35 -6q0 -2 1 -17t1 -24q0 -92 -43 -172t-102 -127 q-20 7 -27 27z" />
<glyph unicode="&#x21a;" horiz-adv-x="1036" d="M156 1245q-6 30 12 70h965q5 -35 -13 -70h-446l-217 -1245q-21 -6 -41 -6q-19 0 -37 6l219 1245h-442zM291 -401q45 47 70.5 116t25.5 129q0 48 -4 66q20 8 43 8q20 0 35 -6q0 -2 1 -17t1 -24q0 -92 -43.5 -171.5t-102.5 -127.5q-19 6 -26 27z" />
<glyph unicode="&#x21b;" horiz-adv-x="743" d="M90 893v16q0 27 12 47h211l47 263q15 6 39 6q23 0 35 -6l-45 -263h365l2 -16q0 -25 -15 -47h-364l-103 -588q-12 -52 -12 -106q0 -79 44.5 -114.5t119.5 -35.5q57 0 98.5 16.5t93.5 49.5q31 -22 31 -58q-117 -77 -239 -77q-101 0 -163.5 49.5t-62.5 148.5q0 40 11 101 l108 614h-213zM258 -401q45 47 70.5 116t25.5 129q0 48 -4 66q20 8 43 8q20 0 35 -6q0 -2 1 -17t1 -24q0 -92 -43 -172t-102 -127q-20 7 -27 27z" />
<glyph unicode="&#x2c6;" horiz-adv-x="579" d="M238 1130l268 259q28 9 53 0l182 -263q-14 -24 -43 -34l-172 227l-256 -229q-26 12 -32 40z" />
<glyph unicode="&#x2c7;" horiz-adv-x="577" d="M276 1350q13 26 39 34l179 -217l249 222q27 -12 33 -41l-262 -252q-28 -6 -55 0z" />
<glyph unicode="&#x2d8;" horiz-adv-x="585" d="M281 1350q25 9 59 6q-1 -92 44 -139.5t118 -47.5q76 0 138 49t87 138q32 0 53 -8q-27 -115 -101 -179.5t-187 -64.5q-100 0 -160.5 66t-50.5 180z" />
<glyph unicode="&#x2d9;" horiz-adv-x="280" d="M289 1249q0 28 20.5 49t48.5 21q29 0 49.5 -21t20.5 -49q0 -29 -20.5 -50t-49.5 -21q-28 0 -48.5 21t-20.5 50z" />
<glyph unicode="&#x2da;" horiz-adv-x="450" d="M266 1206q0 90 57.5 148.5t135.5 58.5q74 0 115.5 -44.5t41.5 -115.5q0 -92 -55.5 -148t-136.5 -56q-74 0 -116 43.5t-42 113.5zM326 1214q0 -47 26 -76.5t78 -29.5q59 0 93 36.5t34 102.5q0 107 -104 107q-52 0 -89.5 -40t-37.5 -100z" />
<glyph unicode="&#x2db;" horiz-adv-x="430" d="M35 -240q0 80 70 158.5t171 138.5h70q-104 -65 -168.5 -137.5t-64.5 -140.5q0 -38 23.5 -58t56.5 -20q46 0 104 37q11 -5 20 -18t9 -27q-71 -60 -156 -60q-61 0 -98 33.5t-37 93.5z" />
<glyph unicode="&#x2dc;" horiz-adv-x="716" d="M262 1182q40 69 86 102t111 33q45 0 91 -22t88 -44t75 -22q70 0 108 90q41 0 58 -21q-24 -65 -69.5 -101t-98.5 -36q-46 0 -90.5 22t-85 44t-76.5 22q-44 0 -77 -23.5t-67 -70.5q-36 4 -53 27z" />
<glyph unicode="&#x2dd;" horiz-adv-x="618" d="M231 1090l238 317q22 -4 34 -13.5t23 -29.5l-260 -301q-24 8 -35 27zM518 1092l236 315q22 -4 34 -13.5t25 -29.5l-260 -301q-25 8 -35 29z" />
<glyph unicode="&#x1e80;" horiz-adv-x="1789" d="M201 1315q20 8 49 8q19 0 31 -4q7 -702 129 -1260q412 577 567 1223q20 4 39 4q21 0 33 -4q-6 -600 112 -1219q437 589 604 1256q10 2 35 2q29 0 41 -6q-196 -735 -651 -1317q-24 -6 -45 -6q-23 0 -41 6q-106 490 -115 965q0 21 -1 63t-1 64l-37 -125 q-92 -286 -216 -517.5t-294 -449.5q-24 -6 -45 -6q-23 0 -47 6q-129 512 -147 1317zM866 1585q12 47 49 70l287 -211q-8 -28 -26 -43z" />
<glyph unicode="&#x1e81;" horiz-adv-x="1488" d="M131 950q24 6 49 6q19 0 31 -4q1 -208 44 -471t85 -387q2 -12 10 -41q8 10 23 25q89 90 167.5 208.5t133 258t55.5 254.5q-4 48 -8 151q24 6 49 6q19 0 31 -4q0 -214 40 -470t83 -388q7 -22 10 -41q4 5 24 25q150 139 266.5 342.5t116.5 361.5q0 107 -38 181q12 4 40 4 q17 0 41 -4q33 -70 33 -181q0 -123 -71.5 -279.5t-175.5 -289t-212 -215.5q-18 -6 -40 -6q-26 0 -41 6q-73 213 -125 590q-49 -167 -156 -329t-223 -261q-18 -6 -41 -6q-27 0 -39 6q-60 166 -109 445.5t-53 506.5zM623 1325q20 47 59 61l238 -260q-8 -24 -33 -39z" />
<glyph unicode="&#x1e82;" horiz-adv-x="1789" d="M201 1315q20 8 49 8q19 0 31 -4q7 -702 129 -1260q412 577 567 1223q20 4 39 4q21 0 33 -4q-6 -600 112 -1219q437 589 604 1256q10 2 35 2q29 0 41 -6q-196 -735 -651 -1317q-24 -6 -45 -6q-23 0 -41 6q-106 490 -115 965q0 21 -1 63t-1 64l-37 -125 q-92 -286 -216 -517.5t-294 -449.5q-24 -6 -45 -6q-23 0 -47 6q-129 512 -147 1317zM848 1442l356 207q29 -18 35 -68l-371 -180q-17 15 -20 41z" />
<glyph unicode="&#x1e83;" horiz-adv-x="1488" d="M131 950q24 6 49 6q19 0 31 -4q1 -208 44 -471t85 -387q2 -12 10 -41q8 10 23 25q89 90 167.5 208.5t133 258t55.5 254.5q-4 48 -8 151q24 6 49 6q19 0 31 -4q0 -214 40 -470t83 -388q7 -22 10 -41q4 5 24 25q150 139 266.5 342.5t116.5 361.5q0 107 -38 181q12 4 40 4 q17 0 41 -4q33 -70 33 -181q0 -123 -71.5 -279.5t-175.5 -289t-212 -215.5q-18 -6 -40 -6q-26 0 -41 6q-73 213 -125 590q-49 -167 -156 -329t-223 -261q-18 -6 -41 -6q-27 0 -39 6q-60 166 -109 445.5t-53 506.5zM596 1128l319 261q41 -21 50 -68l-340 -236q-21 16 -29 43z " />
<glyph unicode="&#x1e84;" horiz-adv-x="1789" d="M201 1315q20 8 49 8q19 0 31 -4q7 -702 129 -1260q412 577 567 1223q20 4 39 4q21 0 33 -4q-6 -600 112 -1219q437 589 604 1256q10 2 35 2q29 0 41 -6q-196 -735 -651 -1317q-24 -6 -45 -6q-23 0 -41 6q-106 490 -115 965q0 21 -1 63t-1 64l-37 -125 q-92 -286 -216 -517.5t-294 -449.5q-24 -6 -45 -6q-23 0 -47 6q-129 512 -147 1317zM782 1538q0 26 20 46t46 20q28 0 47.5 -20t19.5 -46q0 -28 -19.5 -46.5t-47.5 -18.5q-27 0 -46.5 19t-19.5 46zM1176 1538q0 26 19.5 46t45.5 20q28 0 48 -20t20 -46q0 -27 -20 -46 t-48 -19q-27 0 -46 19t-19 46z" />
<glyph unicode="&#x1e85;" horiz-adv-x="1488" d="M131 950q24 6 49 6q19 0 31 -4q1 -208 44 -471t85 -387q2 -12 10 -41q8 10 23 25q89 90 167.5 208.5t133 258t55.5 254.5q-4 48 -8 151q24 6 49 6q19 0 31 -4q0 -214 40 -470t83 -388q7 -22 10 -41q4 5 24 25q150 139 266.5 342.5t116.5 361.5q0 107 -38 181q12 4 40 4 q17 0 41 -4q33 -70 33 -181q0 -123 -71.5 -279.5t-175.5 -289t-212 -215.5q-18 -6 -40 -6q-26 0 -41 6q-73 213 -125 590q-49 -167 -156 -329t-223 -261q-18 -6 -41 -6q-27 0 -39 6q-60 166 -109 445.5t-53 506.5zM512 1235q0 26 20.5 45.5t47.5 19.5t46 -19t19 -46 q0 -28 -19 -48t-46 -20t-47.5 20.5t-20.5 47.5zM907 1235q0 26 20.5 45.5t47.5 19.5t46 -19t19 -46q0 -28 -19 -48t-46 -20t-47.5 20.5t-20.5 47.5z" />
<glyph unicode="&#x1e9e;" horiz-adv-x="1236" d="M86 0l156 883q18 108 67 192t119 135.5t153 78t175 26.5h381v-21q0 -25 -15 -51q-186 -24 -286.5 -112.5t-100.5 -208.5q0 -62 34.5 -113t117.5 -107q81 -54 127.5 -96.5t76 -103t29.5 -135.5q0 -179 -112.5 -283t-288.5 -104q-191 0 -285 124q18 37 58 58 q79 -111 239 -111q148 0 229.5 84.5t81.5 212.5q0 81 -43.5 145t-150.5 136q-44 29 -73 53t-59 57.5t-44.5 75t-14.5 90.5q0 120 73.5 211t205.5 135q-144 -8 -191 -8q-165 0 -281.5 -91t-144.5 -271l-155 -881q-18 -6 -39 -6q-24 0 -39 6z" />
<glyph unicode="&#x1ef2;" d="M166 1315q32 8 53 8t27 -2l299 -674l10 -29l18 29l523 674q10 2 34 2q22 0 50 -8l-598 -770l-97 -545q-18 -6 -39 -6t-36 6l96 549zM516 1585q12 47 49 70l287 -211q-8 -27 -27 -43z" />
<glyph unicode="&#x1ef3;" horiz-adv-x="1079" d="M18 -258q16 41 60 53q91 -117 287 -117q154 0 247.5 87.5t120.5 244.5l19 103q-153 -82 -322 -82q-182 0 -255 101t-42 274l96 546q18 6 39 6q22 0 37 -6l-92 -526q-15 -68 -9 -127t30 -102.5t81.5 -68t145.5 -24.5q157 0 305 89l133 759q18 6 41 6t35 -6l-166 -942 q-33 -190 -148 -295.5t-299 -105.5q-243 0 -344 133zM494 1325q20 47 59 61l238 -260q-8 -24 -33 -39z" />
<glyph unicode="&#x1ef8;" d="M166 1315q32 8 53 8t27 -2l299 -674l10 -29l18 29l523 674q10 2 34 2q22 0 50 -8l-598 -770l-97 -545q-18 -6 -39 -6t-36 6l96 549zM375 1464q44 73 89.5 106.5t113.5 33.5q47 0 95 -23t91.5 -45.5t79.5 -22.5q75 0 114 93q38 0 56 -21q-28 -67 -73 -103t-101 -36 q-48 0 -95.5 22.5t-90.5 45t-81 22.5q-46 0 -79 -24t-66 -72q-39 3 -53 24z" />
<glyph unicode="&#x1ef9;" horiz-adv-x="1079" d="M18 -258q16 41 60 53q91 -117 287 -117q154 0 247.5 87.5t120.5 244.5l19 103q-153 -82 -322 -82q-182 0 -255 101t-42 274l96 546q18 6 39 6q22 0 37 -6l-92 -526q-15 -68 -9 -127t30 -102.5t81.5 -68t145.5 -24.5q157 0 305 89l133 759q18 6 41 6t35 -6l-166 -942 q-33 -190 -148 -295.5t-299 -105.5q-243 0 -344 133zM340 1182q40 69 86 102t111 33q45 0 91 -22t87.5 -44t75.5 -22q70 0 108 90q40 0 57 -21q-24 -65 -69.5 -101t-98.5 -36q-46 0 -90.5 22t-84.5 44t-76 22q-44 0 -77 -23.5t-67 -70.5q-36 4 -53 27z" />
<glyph unicode="&#x2000;" horiz-adv-x="851" />
<glyph unicode="&#x2001;" horiz-adv-x="1702" />
<glyph unicode="&#x2002;" horiz-adv-x="851" />
<glyph unicode="&#x2003;" horiz-adv-x="1702" />
<glyph unicode="&#x2004;" horiz-adv-x="567" />
<glyph unicode="&#x2005;" horiz-adv-x="425" />
<glyph unicode="&#x2006;" horiz-adv-x="283" />
<glyph unicode="&#x2007;" horiz-adv-x="283" />
<glyph unicode="&#x2008;" horiz-adv-x="212" />
<glyph unicode="&#x2009;" horiz-adv-x="340" />
<glyph unicode="&#x200a;" horiz-adv-x="94" />
<glyph unicode="&#x2010;" horiz-adv-x="757" d="M141 481v21q0 23 13 45h446v-15q0 -27 -12 -51h-447z" />
<glyph unicode="&#x2011;" horiz-adv-x="757" d="M141 481v21q0 23 13 45h446v-15q0 -27 -12 -51h-447z" />
<glyph unicode="&#x2012;" horiz-adv-x="757" d="M141 481v21q0 23 13 45h446v-15q0 -27 -12 -51h-447z" />
<glyph unicode="&#x2013;" horiz-adv-x="1134" d="M139 477v21q0 25 13 47h825l2 -17q0 -23 -14 -51h-826z" />
<glyph unicode="&#x2014;" horiz-adv-x="2097" d="M139 500q0 20 15 45h1785q3 -6 3 -15q0 -28 -15 -51h-1786q-2 4 -2 21z" />
<glyph unicode="&#x2018;" horiz-adv-x="378" d="M217 1038q0 105 51.5 193t114.5 141q10 -2 17.5 -8.5t7.5 -15.5q-56 -54 -83.5 -136.5t-27.5 -148.5q0 -52 4 -70q-19 -8 -45 -8q-27 0 -37 6q-2 6 -2 47z" />
<glyph unicode="&#x2019;" horiz-adv-x="378" d="M197 1010q56 54 84 136.5t28 147.5q0 43 -6 70q19 8 45 8q27 0 37 -6q4 -12 4 -47q0 -104 -52 -193t-116 -141q-8 2 -15.5 9t-8.5 16z" />
<glyph unicode="&#x201a;" horiz-adv-x="385" d="M-23 -180q57 54 85 136.5t28 145.5q0 44 -6 74q21 6 45 6q27 0 37 -4q4 -16 4 -47q0 -105 -52 -194.5t-116 -141.5q-8 2 -16.5 9.5t-8.5 15.5z" />
<glyph unicode="&#x201c;" horiz-adv-x="598" d="M217 1038q0 104 51.5 193t114.5 141q10 -2 17.5 -8.5t7.5 -15.5q-58 -55 -84.5 -138t-26.5 -147q0 -52 4 -70q-16 -8 -45 -8q-27 0 -37 6q0 1 -1 18t-1 29zM436 1038q0 105 52 193.5t116 140.5q8 -2 15.5 -9t7.5 -15q-56 -54 -83.5 -136.5t-27.5 -148.5q0 -34 4 -70 q-16 -8 -45 -8q-27 0 -37 6q-2 6 -2 47z" />
<glyph unicode="&#x201d;" horiz-adv-x="600" d="M199 1008q56 53 83 134.5t27 147.5q0 36 -4 72q24 8 43 8q22 0 37 -6q4 -12 4 -47q0 -105 -52.5 -195t-115.5 -139q-8 2 -15 8.5t-7 16.5zM418 1008q57 55 83.5 137.5t26.5 144.5q0 36 -4 72q24 8 45 8q20 0 35 -6q4 -12 4 -47q0 -105 -52.5 -195t-115.5 -139 q-8 2 -15 8.5t-7 16.5z" />
<glyph unicode="&#x201e;" horiz-adv-x="604" d="M-20 -180q55 55 82.5 137.5t27.5 148.5q0 43 -6 70q21 6 45 6q27 0 37 -4q4 -16 4 -47q0 -105 -52 -194.5t-116 -141.5q-8 2 -15 9t-7 16zM199 -180q56 55 83 138.5t27 147.5q0 34 -4 70q18 6 43 6q27 0 37 -4q4 -16 4 -47q0 -105 -52 -194.5t-116 -141.5q-8 2 -15 9 t-7 16z" />
<glyph unicode="&#x2020;" horiz-adv-x="985" d="M195 971v18q0 23 12 51l332 -8l77 436q18 7 37 7q17 0 35 -7l-78 -436l338 8v-16q0 -31 -14 -53l-332 8l-227 -1286q-18 -6 -37 -6q-20 0 -35 6l227 1286z" />
<glyph unicode="&#x2021;" horiz-adv-x="985" d="M45 139q0 26 14 54l330 -11l141 797l-333 -8q-2 4 -2 18q0 18 14 51l330 -8l77 436q21 7 37 7q19 0 37 -7l-78 -436l336 8q2 -4 2 -16q0 -25 -14 -53l-332 8l-141 -795l336 9q2 -6 2 -19q0 -23 -15 -53l-331 8l-78 -436q-18 -6 -39 -6q-17 0 -35 6l78 436l-334 -8 q-2 4 -2 18z" />
<glyph unicode="&#x2022;" horiz-adv-x="716" d="M176 530q0 73 52 125t124 52q73 0 124.5 -51.5t51.5 -125.5q0 -72 -51.5 -124t-124.5 -52q-72 0 -124 52t-52 124z" />
<glyph unicode="&#x2026;" horiz-adv-x="1044" d="M66 51q0 28 19.5 48t47.5 20q29 0 48.5 -20t19.5 -48q0 -29 -19.5 -48t-48.5 -19q-28 0 -47.5 19t-19.5 48zM383 51q0 28 21 48t49 20t47.5 -20t19.5 -48q0 -29 -19.5 -48t-47.5 -19t-49 19t-21 48zM702 51q0 28 21 48t49 20t48 -20t20 -48q0 -29 -20 -48t-48 -19t-49 19 t-21 48z" />
<glyph unicode="&#x202f;" horiz-adv-x="340" />
<glyph unicode="&#x2030;" horiz-adv-x="2093" d="M139 -96l1073 1356q44 12 78 0l-1075 -1356q-47 -13 -76 0zM141 922q0 155 88 249.5t224 94.5q112 0 172.5 -67.5t60.5 -172.5q0 -157 -85 -251.5t-222 -94.5q-114 0 -176 68t-62 174zM209 928q0 -81 47.5 -133t132.5 -52q107 0 169.5 75.5t62.5 201.5q0 81 -45.5 132.5 t-135.5 51.5q-101 0 -166 -76.5t-65 -199.5zM793 227q0 155 87 249.5t222 94.5q113 0 174 -67.5t61 -173.5q0 -156 -85.5 -250t-223.5 -94q-114 0 -174.5 67.5t-60.5 173.5zM858 231q0 -79 48 -130.5t132 -51.5q107 0 169.5 75.5t62.5 201.5q0 81 -44 132.5t-134 51.5 q-102 0 -168 -77t-66 -202zM1432 227q0 155 87 249.5t222 94.5q113 0 174 -67.5t61 -173.5q0 -156 -85.5 -250t-223.5 -94q-114 0 -174.5 67.5t-60.5 173.5zM1497 231q0 -80 47.5 -131t132.5 -51q107 0 169.5 75.5t62.5 201.5q0 81 -44.5 132.5t-135.5 51.5 q-101 0 -166.5 -77t-65.5 -202z" />
<glyph unicode="&#x2039;" horiz-adv-x="522" d="M90 524l299 299q24 -9 29 -32l-232 -269l142 -260q-14 -22 -43 -31z" />
<glyph unicode="&#x203a;" horiz-adv-x="520" d="M90 262l232 260l-138 269q12 23 41 32l195 -299l-299 -293q-25 8 -31 31z" />
<glyph unicode="&#x2044;" horiz-adv-x="1050" d="M-90 -98l1184 1448q39 9 75 0l-1181 -1448q-44 -9 -78 0z" />
<glyph unicode="&#x205f;" horiz-adv-x="425" />
<glyph unicode="&#x20ac;" horiz-adv-x="1269" d="M66 475v14q0 25 12 52h164q3 121 28 237h-118v15q0 22 12 49h125q72 236 240.5 370t390.5 134q217 0 348 -142q-18 -35 -51 -49q-66 62 -136 91.5t-172 29.5q-192 0 -333.5 -115t-206.5 -319h456v-15q0 -25 -12 -49h-463q-25 -117 -28 -237h417q0 -19 -2 -27 q0 -16 -10 -39h-405q9 -204 110 -317t291 -113q203 0 350 123q30 -17 33 -51q-169 -140 -395 -140q-222 0 -341 133t-128 365h-176z" />
<glyph unicode="&#x2122;" horiz-adv-x="1441" d="M193 1296q0 22 12 50h512q0 -19 -2 -27q0 -19 -10 -37h-213l-117 -651q-10 -4 -33 -4t-35 4l115 651h-227zM649 631l125 712q24 7 53 7h21l145 -516l11 -54l30 54l305 514h19q11 0 51 -5l-125 -712q-20 -4 -37 -4q-14 0 -30 4l90 508l16 69l-6 -12l-293 -496 q-14 -6 -37 -6q-18 0 -33 6l-137 498l-2 10l-8 -69l-90 -508q-16 -4 -33 -4q-15 0 -35 4z" />
<glyph unicode="&#x2248;" horiz-adv-x="1048" d="M94 219q40 64 101 99.5t133 35.5q64 0 159.5 -46t145.5 -46q106 0 170 94q39 -4 51 -28q-40 -65 -101.5 -101.5t-131.5 -36.5q-65 0 -159 46.5t-147 46.5q-111 0 -172 -93q-15 2 -30 10.5t-19 18.5zM158 586q41 65 102 100t131 35q52 0 107 -23t105.5 -46t92.5 -23 q109 0 172 96q14 -2 30 -11t22 -20q-41 -65 -102.5 -100t-133.5 -35q-52 0 -105 23t-103.5 46t-96.5 23q-112 0 -172 -94q-14 1 -28 10t-21 19z" />
<glyph unicode="&#x2260;" horiz-adv-x="1007" d="M109 279v12q0 28 12 55h260l190 264h-403v15q0 25 12 55h443l182 252q29 -6 49 -35l-158 -217h174v-14q0 -26 -12 -56h-211l-192 -264h356q2 -2 2 -12q0 -25 -12 -55h-395l-173 -238q-31 8 -49 35l148 203h-223z" />
<glyph unicode="&#x25fc;" horiz-adv-x="962" d="M0 0v963h963v-963h-963z" />
<glyph unicode="&#xf8ff;" horiz-adv-x="2822" d="M301 553q4 299 29 643h194q0 -9 3 -90.5t4 -143t2.5 -187t-1.5 -222.5h-231zM303 301l4 164l228 59l-3 -37h345l-5 -243q0 -33 6 -44.5t23 -11.5q33 0 33 56l4 243h203q6 -43 8 -51q15 -95 17.5 -171t-6 -132t-28.5 -97.5t-46.5 -67.5t-64.5 -42t-78 -22t-91 -6 q-116 0 -170 34l4 170q40 -32 135 -32q25 0 45.5 5t31.5 11.5t18 15t9.5 15t2.5 10.5q-34 -23 -97 -23q-87 0 -129.5 41.5t-42.5 128.5v27h-106l4 -133q8 -8 29 -8q25 0 35 10l-3 -150q-38 -30 -133 -30q-72 0 -108.5 26.5t-44.5 81.5q-4 8 -3 46t2 60t4 58t3 39h-35z M571 715q-24 155 41 246.5t224 91.5q238 0 235 -240l-4 -260h-162l-12 125q-14 -67 -48.5 -101t-101.5 -34q-70 0 -114.5 43t-57.5 129zM780 750q6 -43 41 -43q26 0 39 20.5t8 54.5q-5 39 -45 39q-30 0 -39.5 -17.5t-3.5 -53.5zM1092 854l4 162l231 61l2 -35h346 q19 -147 11 -489h-230q3 186 12 301h-118l2 -133q8 -8 28 -8q27 0 37 10l-4 -152q-23 -30 -133 -30q-137 0 -156 108q-3 18 0 65.5t7 92t4 47.5h-43zM1180 -90q6 349 30 577h152q4 -22 7.5 -76t2.5 -79q3 15 7 29t16.5 41t28.5 46.5t44.5 34.5t63.5 15q58 0 96.5 -43.5 t50.5 -124.5q27 -162 -40 -251t-228 -89v-80h-231zM1395 180q3 -23 8 -33q7 0 19 4t26.5 12.5t22.5 27.5t4 45q-5 34 -37 34q-58 0 -43 -90zM1462 1176q-9 59 28 102t93 43q44 0 76.5 -30.5t40.5 -76.5q9 -60 -27.5 -102.5t-93.5 -42.5q-43 0 -76 31t-41 76zM1716 188 q-22 139 44 224.5t202 85.5q90 0 147 -48.5t72 -138.5q7 -63 -6 -123h-242q23 -36 99 -36q66 0 106 24l-2 -153q-47 -33 -154 -33q-235 0 -266 198zM1729 553q4 352 28 489h156q10 -113 8 -155q2 19 9 41.5t23.5 53.5t49.5 51t78 20q83 0 114 -51.5t31 -165.5l2 -283h-223 q1 57 4 111.5t3.5 66.5t-1.5 41q-3 31 -26 31q-21 0 -28 -14.5t-9 -45.5q0 -4 1.5 -69t0.5 -121h-221zM1925 223h78q6 56 -33 56q-45 0 -45 -56zM2187 18q3 -38 45 -38q23 0 36.5 15t10.5 40q-6 39 -45 39q-24 0 -37.5 -16t-9.5 -40zM2198 18q-6 45 36 45q30 0 33 -28 q6 -45 -35 -45q-28 0 -34 28zM2214 4h8v19h10l9 -19h12l-12 19q6 0 10.5 4t3.5 12q-3 12 -21 12h-20v-47zM2222 31l2 12h12q9 0 9 -4q0 -8 -9 -8h-14zM2259 806q0 33 5 70t22.5 67.5t44.5 55.5t72.5 39.5t105.5 14.5q106 0 159.5 -53.5t67.5 -139.5q23 -144 -36 -230.5 t-206 -86.5q-100 0 -157.5 51.5t-71.5 144.5q-6 34 -6 67zM2460 750q6 -43 39 -43q25 0 37 20.5t8 54.5q-5 39 -43 39q-29 0 -38 -17.5t-3 -53.5z" />
</font>
</defs>
</svg>
